{"glyphs":{"0":{"ha":832,"x_min":0,"x_max":0,"o":"m 419 -17 b 811 481 671 -17 811 172 b 413 989 811 788 685 989 b 21 490 182 989 21 785 b 419 -17 21 149 188 -17 z m 419 199 b 296 490 364 199 296 311 b 411 765 296 660 360 767 b 532 481 479 765 532 646 b 419 199 532 311 483 199 z "},"1":{"ha":689,"x_min":0,"x_max":0,"o":"m 99 635 l 238 700 l 238 185 l 99 185 l 99 0 l 654 0 l 654 185 l 525 185 l 525 971 l 278 971 b 35 789 176 850 114 828 z "},"2":{"ha":819,"x_min":0,"x_max":0,"o":"m 196 656 b 367 761 238 700 292 761 b 483 669 431 761 483 740 b 238 438 483 583 336 525 b 35 201 149 367 111 326 l 35 0 l 785 0 l 785 296 l 551 296 l 551 185 l 307 185 b 515 371 339 240 449 328 b 738 682 663 467 738 522 b 407 986 738 869 592 986 b 46 814 268 986 143 926 z "},"3":{"ha":750,"x_min":0,"x_max":0,"o":"m 344 -18 b 729 288 532 -18 729 82 b 600 515 729 413 644 483 b 703 692 636 543 703 597 b 349 986 703 869 575 986 b 51 854 222 986 101 908 l 186 692 b 349 775 235 743 296 775 b 471 665 407 775 471 740 b 353 569 471 603 419 569 l 251 569 l 251 404 l 356 404 b 471 303 425 404 471 378 b 346 196 471 233 424 196 b 163 286 267 196 214 235 l 21 139 b 344 -18 75 58 213 -18 z "},"4":{"ha":811,"x_min":0,"x_max":0,"o":"m 14 274 l 414 274 l 414 183 l 326 183 l 326 0 l 776 0 l 776 183 l 701 183 l 701 274 l 775 274 l 775 424 l 701 424 l 701 971 l 414 971 l 14 472 z m 208 424 l 414 681 l 414 424 z "},"5":{"ha":801,"x_min":0,"x_max":0,"o":"m 365 -18 b 781 333 567 -18 781 100 b 457 663 781 549 619 663 b 307 629 389 663 335 647 l 331 764 l 704 764 l 704 971 l 154 971 l 69 493 l 247 414 b 378 478 276 444 314 478 b 519 343 457 478 519 417 b 367 204 519 263 460 204 b 172 307 286 204 226 251 l 21 150 b 365 -18 78 64 225 -18 z "},"6":{"ha":807,"x_min":0,"x_max":0,"o":"m 758 876 b 431 986 676 946 524 989 b 22 422 65 975 18 607 b 426 -12 31 144 199 -19 b 786 339 653 -6 786 153 b 461 649 786 528 639 656 b 279 578 388 646 315 614 b 461 767 293 681 358 764 b 664 696 546 767 617 724 z m 425 449 b 538 325 508 450 536 379 b 411 206 539 258 482 206 b 282 369 322 206 282 300 b 425 449 304 397 360 446 z "},"7":{"ha":786,"x_min":0,"x_max":0,"o":"m 21 696 l 243 696 l 243 786 l 471 786 l 99 0 l 399 0 l 772 786 l 772 971 l 21 971 z "},"8":{"ha":776,"x_min":0,"x_max":0,"o":"m 21 285 b 389 -18 21 114 158 -18 b 756 285 613 -18 756 114 b 613 525 756 379 707 479 b 729 714 674 554 729 622 b 397 988 729 868 613 988 b 67 714 189 988 67 868 b 171 529 67 647 101 571 b 21 285 79 483 21 375 z m 499 725 b 432 633 499 683 467 650 b 294 725 386 635 294 649 b 394 813 294 771 340 813 b 499 725 450 813 499 775 z m 261 293 b 342 417 261 344 300 393 b 518 293 406 414 518 390 b 390 179 517 217 458 179 b 261 293 321 179 261 228 z "},"9":{"ha":815,"x_min":0,"x_max":0,"o":"m 49 97 b 376 -12 131 28 283 -15 b 793 551 742 -1 799 340 b 381 986 785 829 608 993 b 21 635 154 979 21 821 b 346 325 21 446 168 318 b 515 396 419 328 479 360 b 346 207 517 274 449 210 b 143 278 261 207 190 250 z m 382 525 b 269 649 299 524 271 594 b 396 768 268 715 325 768 b 513 604 485 768 513 674 b 382 525 490 576 447 528 z "},"A":{"ha":1143,"x_min":0,"x_max":0,"o":"m 1122 182 l 1025 182 l 779 971 l 246 971 l 246 792 l 303 792 l 115 182 l 21 182 l 21 0 l 463 0 l 463 182 l 354 182 l 383 276 l 668 276 l 697 182 l 565 182 l 565 0 l 1122 0 z m 525 743 l 617 443 l 435 443 z "},"Á":{"ha":1143,"x_min":0,"x_max":0,"o":"m 782 1247 l 571 1275 l 363 1115 l 518 1088 z m 1122 182 l 1025 182 l 779 971 l 246 971 l 246 792 l 303 792 l 115 182 l 21 182 l 21 0 l 463 0 l 463 182 l 354 182 l 383 276 l 668 276 l 697 182 l 565 182 l 565 0 l 1122 0 z m 525 743 l 617 443 l 435 443 z "},"Ă":{"ha":1143,"x_min":0,"x_max":0,"o":"m 769 1196 l 628 1228 b 572 1132 628 1168 601 1132 b 515 1228 542 1132 515 1168 l 374 1196 b 572 1024 379 1090 465 1024 b 769 1196 678 1024 764 1090 z m 1122 182 l 1025 182 l 779 971 l 246 971 l 246 792 l 303 792 l 115 182 l 21 182 l 21 0 l 463 0 l 463 182 l 354 182 l 383 276 l 668 276 l 697 182 l 565 182 l 565 0 l 1122 0 z m 525 743 l 617 443 l 435 443 z "},"Â":{"ha":1143,"x_min":0,"x_max":0,"o":"m 572 1161 l 663 1039 l 824 1088 l 636 1247 l 507 1247 l 319 1088 l 481 1039 z m 1025 182 l 779 971 l 246 971 l 246 792 l 303 792 l 115 182 l 21 182 l 21 0 l 463 0 l 463 182 l 354 182 l 383 276 l 668 276 l 697 182 l 565 182 l 565 0 l 1122 0 l 1122 182 z m 435 443 l 525 743 l 617 443 z "},"Ä":{"ha":1143,"x_min":0,"x_max":0,"o":"m 413 1019 b 513 1121 467 1019 513 1065 b 413 1219 513 1174 467 1219 b 313 1121 357 1219 313 1174 b 413 1019 313 1065 357 1019 z m 732 1019 b 831 1121 786 1019 831 1065 b 732 1219 831 1174 786 1219 b 631 1121 676 1219 631 1174 b 732 1019 631 1065 676 1019 z m 1122 182 l 1025 182 l 779 971 l 246 971 l 246 792 l 303 792 l 115 182 l 21 182 l 21 0 l 463 0 l 463 182 l 354 182 l 383 276 l 668 276 l 697 182 l 565 182 l 565 0 l 1122 0 z m 525 743 l 617 443 l 435 443 z "},"À":{"ha":1143,"x_min":0,"x_max":0,"o":"m 363 1247 l 626 1088 l 782 1115 l 574 1275 z m 1122 182 l 1025 182 l 779 971 l 246 971 l 246 792 l 303 792 l 115 182 l 21 182 l 21 0 l 463 0 l 463 182 l 354 182 l 383 276 l 668 276 l 697 182 l 565 182 l 565 0 l 1122 0 z m 525 743 l 617 443 l 435 443 z "},"Ā":{"ha":1143,"x_min":0,"x_max":0,"o":"m 260 1218 l 260 1103 l 885 1103 l 885 1218 z m 1122 182 l 1025 182 l 779 971 l 246 971 l 246 792 l 303 792 l 115 182 l 21 182 l 21 0 l 463 0 l 463 182 l 354 182 l 383 276 l 668 276 l 697 182 l 565 182 l 565 0 l 1122 0 z m 525 743 l 617 443 l 435 443 z "},"Ą":{"ha":1143,"x_min":0,"x_max":0,"o":"m 1226 -137 b 1029 -85 1079 -194 1029 -129 b 1079 0 1029 -51 1054 -24 l 1122 0 l 1122 182 l 1025 182 l 779 971 l 246 971 l 246 792 l 303 792 l 115 182 l 21 182 l 21 0 l 463 0 l 463 182 l 354 182 l 383 276 l 668 276 l 697 182 l 565 182 l 565 0 l 983 0 b 914 -150 951 -29 914 -76 b 1299 -239 914 -287 1100 -349 z m 435 443 l 525 743 l 617 443 z "},"Å":{"ha":1143,"x_min":0,"x_max":0,"o":"m 572 1013 b 714 1154 650 1013 714 1076 b 572 1296 714 1232 650 1296 b 431 1154 494 1296 431 1232 b 572 1013 431 1076 494 1013 z m 572 1103 b 521 1154 544 1103 521 1126 b 572 1206 521 1182 544 1206 b 624 1154 600 1206 624 1182 b 572 1103 624 1126 600 1103 z m 1122 182 l 1025 182 l 779 971 l 246 971 l 246 792 l 303 792 l 115 182 l 21 182 l 21 0 l 463 0 l 463 182 l 354 182 l 383 276 l 668 276 l 697 182 l 565 182 l 565 0 l 1122 0 z m 525 743 l 617 443 l 435 443 z "},"Ã":{"ha":1143,"x_min":0,"x_max":0,"o":"m 665 1046 b 813 1182 740 1049 789 1103 l 715 1242 b 650 1167 711 1231 679 1169 b 476 1258 596 1161 571 1263 b 331 1122 403 1256 354 1201 l 429 1063 b 493 1138 431 1074 464 1135 b 665 1046 546 1143 574 1043 z m 1122 182 l 1025 182 l 779 971 l 246 971 l 246 792 l 303 792 l 115 182 l 21 182 l 21 0 l 463 0 l 463 182 l 354 182 l 383 276 l 668 276 l 697 182 l 565 182 l 565 0 l 1122 0 z m 525 743 l 617 443 l 435 443 z "},"Æ":{"ha":1500,"x_min":0,"x_max":0,"o":"m 1465 664 l 1465 971 l 415 971 l 415 792 l 472 792 l 115 182 l 21 182 l 21 0 l 463 0 l 463 182 l 354 182 l 410 276 l 696 276 l 696 182 l 565 182 l 565 0 l 1465 0 l 1465 314 l 1225 314 l 1225 185 l 1003 185 l 1003 411 l 1267 411 l 1267 596 l 1003 596 l 1003 788 l 1225 788 l 1225 664 z m 696 443 l 507 443 l 696 799 z "},"B":{"ha":954,"x_min":0,"x_max":0,"o":"m 563 0 b 940 282 831 0 940 86 b 757 518 940 417 857 490 b 893 733 861 560 893 617 b 553 971 893 885 783 971 l 35 971 l 35 792 l 115 792 l 115 181 l 35 181 l 35 0 z m 490 788 b 582 686 543 788 582 750 b 488 579 582 619 561 579 l 403 579 l 403 788 z m 403 181 l 403 422 l 510 422 b 626 300 586 422 626 371 b 514 181 626 225 572 181 z "},"C":{"ha":953,"x_min":0,"x_max":0,"o":"m 769 351 b 549 215 757 338 665 215 b 346 476 417 215 346 339 b 511 751 346 628 411 751 b 658 576 610 751 654 667 l 907 576 l 907 971 l 689 971 l 657 893 b 443 988 644 910 582 988 b 21 476 261 988 21 796 b 511 -22 21 167 217 -22 b 932 174 693 -22 838 69 z "},"Ć":{"ha":953,"x_min":0,"x_max":0,"o":"m 686 1247 l 475 1275 l 267 1115 l 422 1088 z m 769 351 b 549 215 757 338 665 215 b 346 476 417 215 346 339 b 511 751 346 628 411 751 b 658 576 610 751 654 667 l 907 576 l 907 971 l 689 971 l 657 893 b 443 988 644 910 582 988 b 21 476 261 988 21 796 b 511 -22 21 167 217 -22 b 932 174 693 -22 838 69 z "},"Č":{"ha":953,"x_min":0,"x_max":0,"o":"m 540 1039 l 728 1199 l 567 1247 l 476 1125 l 385 1247 l 224 1199 l 411 1039 z m 769 351 b 549 215 757 338 665 215 b 346 476 417 215 346 339 b 511 751 346 628 411 751 b 658 576 610 751 654 667 l 907 576 l 907 971 l 689 971 l 657 893 b 443 988 644 910 582 988 b 21 476 261 988 21 796 b 511 -22 21 167 217 -22 b 932 174 693 -22 838 69 z "},"Ç":{"ha":953,"x_min":0,"x_max":0,"o":"m 511 -22 b 932 174 693 -22 838 69 l 769 351 b 549 215 757 338 665 215 b 346 476 417 215 346 339 b 511 751 346 628 411 751 b 658 576 610 751 654 667 l 907 576 l 907 971 l 689 971 l 657 893 b 443 988 644 910 582 988 b 21 476 261 988 21 796 b 421 -15 21 200 178 19 l 410 -143 l 500 -160 b 556 -122 503 -144 528 -122 b 608 -179 592 -122 608 -144 b 536 -236 608 -215 589 -233 b 442 -207 503 -237 461 -228 l 374 -272 b 542 -335 403 -304 463 -335 b 732 -172 632 -335 732 -281 b 582 -31 732 -78 660 -25 b 490 -78 526 -35 497 -65 l 493 -22 z "},"Ċ":{"ha":953,"x_min":0,"x_max":0,"o":"m 478 1019 b 576 1121 532 1019 576 1065 b 478 1219 576 1174 532 1219 b 376 1121 422 1219 376 1174 b 478 1019 376 1065 422 1019 z m 769 351 b 549 215 757 338 665 215 b 346 476 417 215 346 339 b 511 751 346 628 411 751 b 658 576 610 751 654 667 l 907 576 l 907 971 l 689 971 l 657 893 b 443 988 644 910 582 988 b 21 476 261 988 21 796 b 511 -22 21 167 217 -22 b 932 174 693 -22 838 69 z "},"D":{"ha":1000,"x_min":0,"x_max":0,"o":"m 453 0 b 986 499 794 0 986 182 b 458 971 986 764 794 971 l 35 971 l 35 788 l 121 788 l 121 185 l 35 185 l 35 0 z m 667 499 b 458 185 667 325 606 188 l 406 185 l 406 788 l 458 788 b 667 499 606 788 667 647 z "},"Ð":{"ha":1000,"x_min":0,"x_max":0,"o":"m 458 971 l 35 971 l 35 788 l 121 788 l 121 569 l -7 569 l -7 386 l 121 386 l 121 185 l 35 185 l 35 0 l 453 0 b 986 499 794 0 986 182 b 458 971 986 764 794 971 z m 458 185 l 406 185 l 406 386 l 558 386 l 558 569 l 406 569 l 406 788 l 458 788 b 667 499 606 788 667 647 b 458 185 667 325 606 188 z "},"Ď":{"ha":1000,"x_min":0,"x_max":0,"o":"m 564 1039 l 751 1199 l 590 1247 l 500 1125 l 408 1247 l 247 1199 l 435 1039 z m 458 971 l 35 971 l 35 788 l 121 788 l 121 185 l 35 185 l 35 0 l 453 0 b 986 499 794 0 986 182 b 458 971 986 764 794 971 z m 458 185 l 406 185 l 406 788 l 458 788 b 667 499 606 788 667 647 b 458 185 667 325 606 188 z "},"Đ":{"ha":1000,"x_min":0,"x_max":0,"o":"m 458 971 l 35 971 l 35 788 l 121 788 l 121 569 l -7 569 l -7 386 l 121 386 l 121 185 l 35 185 l 35 0 l 453 0 b 986 499 794 0 986 182 b 458 971 986 764 794 971 z m 458 185 l 406 185 l 406 386 l 558 386 l 558 569 l 406 569 l 406 788 l 458 788 b 667 499 606 788 667 647 b 458 185 667 325 606 188 z "},"E":{"ha":907,"x_min":0,"x_max":0,"o":"m 35 788 l 122 788 l 122 185 l 35 185 l 35 0 l 872 0 l 872 314 l 632 314 l 632 185 l 410 185 l 410 411 l 674 411 l 674 596 l 410 596 l 410 788 l 632 788 l 632 664 l 872 664 l 872 971 l 35 971 z "},"É":{"ha":907,"x_min":0,"x_max":0,"o":"m 664 1247 l 453 1275 l 244 1115 l 400 1088 z m 35 788 l 122 788 l 122 185 l 35 185 l 35 0 l 872 0 l 872 314 l 632 314 l 632 185 l 410 185 l 410 411 l 674 411 l 674 596 l 410 596 l 410 788 l 632 788 l 632 664 l 872 664 l 872 971 l 35 971 z "},"Ě":{"ha":907,"x_min":0,"x_max":0,"o":"m 518 1039 l 706 1199 l 544 1247 l 454 1125 l 363 1247 l 201 1199 l 389 1039 z m 872 664 l 872 971 l 35 971 l 35 788 l 122 788 l 122 185 l 35 185 l 35 0 l 872 0 l 872 314 l 632 314 l 632 185 l 410 185 l 410 411 l 674 411 l 674 596 l 410 596 l 410 788 l 632 788 l 632 664 z "},"Ê":{"ha":907,"x_min":0,"x_max":0,"o":"m 454 1161 l 544 1039 l 706 1088 l 518 1247 l 389 1247 l 201 1088 l 363 1039 z m 872 664 l 872 971 l 35 971 l 35 788 l 122 788 l 122 185 l 35 185 l 35 0 l 872 0 l 872 314 l 632 314 l 632 185 l 410 185 l 410 411 l 674 411 l 674 596 l 410 596 l 410 788 l 632 788 l 632 664 z "},"Ë":{"ha":907,"x_min":0,"x_max":0,"o":"m 294 1019 b 394 1121 349 1019 394 1065 b 294 1219 394 1174 349 1219 b 194 1121 239 1219 194 1174 b 294 1019 194 1065 239 1019 z m 614 1019 b 713 1121 668 1019 713 1065 b 614 1219 713 1174 668 1219 b 513 1121 558 1219 513 1174 b 614 1019 513 1065 558 1019 z m 35 788 l 122 788 l 122 185 l 35 185 l 35 0 l 872 0 l 872 314 l 632 314 l 632 185 l 410 185 l 410 411 l 674 411 l 674 596 l 410 596 l 410 788 l 632 788 l 632 664 l 872 664 l 872 971 l 35 971 z "},"Ė":{"ha":907,"x_min":0,"x_max":0,"o":"m 456 1019 b 554 1121 510 1019 554 1065 b 456 1219 554 1174 510 1219 b 354 1121 400 1219 354 1174 b 456 1019 354 1065 400 1019 z m 35 788 l 122 788 l 122 185 l 35 185 l 35 0 l 872 0 l 872 314 l 632 314 l 632 185 l 410 185 l 410 411 l 674 411 l 674 596 l 410 596 l 410 788 l 632 788 l 632 664 l 872 664 l 872 971 l 35 971 z "},"È":{"ha":907,"x_min":0,"x_max":0,"o":"m 244 1247 l 508 1088 l 664 1115 l 456 1275 z m 35 788 l 122 788 l 122 185 l 35 185 l 35 0 l 872 0 l 872 314 l 632 314 l 632 185 l 410 185 l 410 411 l 674 411 l 674 596 l 410 596 l 410 788 l 632 788 l 632 664 l 872 664 l 872 971 l 35 971 z "},"Ē":{"ha":907,"x_min":0,"x_max":0,"o":"m 142 1218 l 142 1103 l 767 1103 l 767 1218 z m 35 788 l 122 788 l 122 185 l 35 185 l 35 0 l 872 0 l 872 314 l 632 314 l 632 185 l 410 185 l 410 411 l 674 411 l 674 596 l 410 596 l 410 788 l 632 788 l 632 664 l 872 664 l 872 971 l 35 971 z "},"Ę":{"ha":907,"x_min":0,"x_max":0,"o":"m 985 -137 b 788 -85 838 -194 788 -129 b 838 0 788 -51 813 -24 l 872 0 l 872 314 l 632 314 l 632 185 l 410 185 l 410 411 l 674 411 l 674 596 l 410 596 l 410 788 l 632 788 l 632 664 l 872 664 l 872 971 l 35 971 l 35 788 l 122 788 l 122 185 l 35 185 l 35 0 l 742 0 b 672 -150 710 -29 672 -76 b 1057 -239 672 -287 858 -349 z "},"F":{"ha":886,"x_min":0,"x_max":0,"o":"m 35 788 l 121 788 l 121 185 l 35 185 l 35 0 l 551 0 l 551 185 l 410 185 l 410 361 l 674 361 l 674 546 l 410 546 l 410 788 l 619 788 l 619 664 l 865 664 l 865 971 l 35 971 z "},"G":{"ha":1078,"x_min":0,"x_max":0,"o":"m 724 0 l 1001 0 l 1001 347 l 1057 347 l 1057 496 l 596 496 l 596 347 l 681 347 l 681 289 b 547 221 660 253 626 221 b 357 476 426 221 357 335 b 547 738 357 615 435 738 b 706 561 629 738 701 674 l 954 561 l 954 971 l 747 971 l 718 871 b 447 988 696 893 649 988 b 21 476 231 988 21 779 b 457 -12 21 176 214 -12 b 681 88 564 -12 650 36 z "},"Ğ":{"ha":1078,"x_min":0,"x_max":0,"o":"m 736 1196 l 594 1228 b 539 1132 594 1168 568 1132 b 482 1228 508 1132 482 1168 l 340 1196 b 539 1024 346 1090 432 1024 b 736 1196 644 1024 731 1090 z m 724 0 l 1001 0 l 1001 347 l 1057 347 l 1057 496 l 596 496 l 596 347 l 681 347 l 681 289 b 547 221 660 253 626 221 b 357 476 426 221 357 335 b 547 738 357 615 435 738 b 706 561 629 738 701 674 l 954 561 l 954 971 l 747 971 l 718 871 b 447 988 696 893 649 988 b 21 476 231 988 21 779 b 457 -12 21 176 214 -12 b 681 88 564 -12 650 36 z "},"Ģ":{"ha":1078,"x_min":0,"x_max":0,"o":"m 724 0 l 1001 0 l 1001 347 l 1057 347 l 1057 496 l 596 496 l 596 347 l 681 347 l 681 289 b 547 221 660 253 626 221 b 357 476 426 221 357 335 b 547 738 357 615 435 738 b 706 561 629 738 701 674 l 954 561 l 954 971 l 747 971 l 718 871 b 447 988 696 893 649 988 b 21 476 231 988 21 779 b 457 -12 21 176 214 -12 b 681 88 564 -12 650 36 z m 518 -461 b 663 -157 610 -381 667 -272 l 500 -114 b 415 -403 510 -249 479 -324 z "},"Ġ":{"ha":1078,"x_min":0,"x_max":0,"o":"m 540 1019 b 639 1121 594 1019 639 1065 b 540 1219 639 1174 594 1219 b 439 1121 485 1219 439 1174 b 540 1019 439 1065 485 1019 z m 724 0 l 1001 0 l 1001 347 l 1057 347 l 1057 496 l 596 496 l 596 347 l 681 347 l 681 289 b 547 221 660 253 626 221 b 357 476 426 221 357 335 b 547 738 357 615 435 738 b 706 561 629 738 701 674 l 954 561 l 954 971 l 747 971 l 718 871 b 447 988 696 893 649 988 b 21 476 231 988 21 779 b 457 -12 21 176 214 -12 b 681 88 564 -12 650 36 z "},"H":{"ha":1067,"x_min":0,"x_max":0,"o":"m 35 788 l 111 788 l 111 183 l 35 183 l 35 0 l 485 0 l 485 183 l 399 183 l 399 393 l 663 393 l 663 183 l 581 183 l 581 0 l 1032 0 l 1032 183 l 951 183 l 951 788 l 1032 788 l 1032 971 l 581 971 l 581 788 l 663 788 l 663 578 l 399 578 l 399 788 l 485 788 l 485 971 l 35 971 z "},"Ħ":{"ha":1067,"x_min":0,"x_max":0,"o":"m 1032 788 l 1032 971 l 581 971 l 581 788 l 663 788 l 663 721 l 399 721 l 399 788 l 485 788 l 485 971 l 35 971 l 35 788 l 111 788 l 111 721 l 39 721 l 39 633 l 111 633 l 111 183 l 35 183 l 35 0 l 485 0 l 485 183 l 399 183 l 399 393 l 663 393 l 663 183 l 581 183 l 581 0 l 1032 0 l 1032 183 l 951 183 l 951 633 l 1032 633 l 1032 721 l 951 721 l 951 788 z m 663 578 l 399 578 l 399 633 l 663 633 z "},"I":{"ha":531,"x_min":0,"x_max":0,"o":"m 35 788 l 122 788 l 122 185 l 35 185 l 35 0 l 496 0 l 496 185 l 410 185 l 410 788 l 496 788 l 496 971 l 35 971 z "},"Í":{"ha":531,"x_min":0,"x_max":0,"o":"m 475 1247 l 264 1275 l 56 1115 l 211 1088 z m 35 788 l 122 788 l 122 185 l 35 185 l 35 0 l 496 0 l 496 185 l 410 185 l 410 788 l 496 788 l 496 971 l 35 971 z "},"Î":{"ha":531,"x_min":0,"x_max":0,"o":"m 265 1161 l 356 1039 l 517 1088 l 329 1247 l 200 1247 l 13 1088 l 174 1039 z m 35 788 l 122 788 l 122 185 l 35 185 l 35 0 l 496 0 l 496 185 l 410 185 l 410 788 l 496 788 l 496 971 l 35 971 z "},"Ï":{"ha":531,"x_min":0,"x_max":0,"o":"m 106 1019 b 206 1121 160 1019 206 1065 b 106 1219 206 1174 160 1219 b 6 1121 50 1219 6 1174 b 106 1019 6 1065 50 1019 z m 425 1019 b 524 1121 479 1019 524 1065 b 425 1219 524 1174 479 1219 b 324 1121 369 1219 324 1174 b 425 1019 324 1065 369 1019 z m 35 788 l 122 788 l 122 185 l 35 185 l 35 0 l 496 0 l 496 185 l 410 185 l 410 788 l 496 788 l 496 971 l 35 971 z "},"İ":{"ha":531,"x_min":0,"x_max":0,"o":"m 267 1019 b 365 1121 321 1019 365 1065 b 267 1219 365 1174 321 1219 b 165 1121 211 1219 165 1174 b 267 1019 165 1065 211 1019 z m 35 788 l 122 788 l 122 185 l 35 185 l 35 0 l 496 0 l 496 185 l 410 185 l 410 788 l 496 788 l 496 971 l 35 971 z "},"Ì":{"ha":531,"x_min":0,"x_max":0,"o":"m 56 1247 l 319 1088 l 475 1115 l 267 1275 z m 35 788 l 122 788 l 122 185 l 35 185 l 35 0 l 496 0 l 496 185 l 410 185 l 410 788 l 496 788 l 496 971 l 35 971 z "},"Ī":{"ha":531,"x_min":0,"x_max":0,"o":"m -47 1218 l -47 1103 l 578 1103 l 578 1218 z m 35 788 l 122 788 l 122 185 l 35 185 l 35 0 l 496 0 l 496 185 l 410 185 l 410 788 l 496 788 l 496 971 l 35 971 z "},"Į":{"ha":531,"x_min":0,"x_max":0,"o":"m 675 -137 b 478 -85 528 -194 478 -129 b 546 17 478 -43 518 -8 l 496 25 l 496 185 l 410 185 l 410 788 l 496 788 l 496 971 l 35 971 l 35 788 l 122 788 l 122 185 l 35 185 l 35 0 l 432 0 b 363 -150 400 -29 363 -76 b 747 -239 363 -287 549 -349 z "},"J":{"ha":643,"x_min":0,"x_max":0,"o":"m 29 -268 b 101 -283 50 -276 75 -283 b 493 103 388 -283 493 -143 l 493 789 l 608 789 l 608 971 l 86 971 l 86 789 l 206 789 l 206 103 b 90 -97 206 -46 160 -97 b 28 -85 65 -97 46 -93 z "},"K":{"ha":1132,"x_min":0,"x_max":0,"o":"m 472 971 l 35 971 l 35 792 l 110 792 l 110 181 l 35 181 l 35 0 l 472 0 l 472 181 l 397 181 l 397 329 l 500 417 l 650 181 l 556 181 l 556 0 l 1097 0 l 1097 181 l 1017 181 l 736 618 l 938 792 l 1018 792 l 1018 971 l 556 971 l 556 792 l 656 792 l 397 565 l 397 792 l 472 792 z "},"Ķ":{"ha":1132,"x_min":0,"x_max":0,"o":"m 472 971 l 35 971 l 35 792 l 110 792 l 110 181 l 35 181 l 35 0 l 472 0 l 472 181 l 397 181 l 397 329 l 500 417 l 650 181 l 556 181 l 556 0 l 1097 0 l 1097 181 l 1017 181 l 736 618 l 938 792 l 1018 792 l 1018 971 l 556 971 l 556 792 l 656 792 l 397 565 l 397 792 l 472 792 z m 546 -461 b 690 -157 638 -381 694 -272 l 528 -114 b 443 -403 538 -249 507 -324 z "},"L":{"ha":847,"x_min":0,"x_max":0,"o":"m 35 788 l 111 788 l 111 185 l 35 185 l 35 0 l 813 0 l 813 361 l 579 361 l 579 185 l 400 185 l 400 788 l 474 788 l 474 971 l 35 971 z "},"Ĺ":{"ha":847,"x_min":0,"x_max":0,"o":"m 633 1247 l 422 1275 l 214 1115 l 369 1088 z m 35 788 l 111 788 l 111 185 l 35 185 l 35 0 l 813 0 l 813 361 l 579 361 l 579 185 l 400 185 l 400 788 l 474 788 l 474 971 l 35 971 z "},"Ľ":{"ha":847,"x_min":0,"x_max":0,"o":"m 488 1039 l 675 1199 l 514 1247 l 424 1125 l 332 1247 l 171 1199 l 358 1039 z m 579 361 l 579 185 l 400 185 l 400 788 l 474 788 l 474 971 l 35 971 l 35 788 l 111 788 l 111 185 l 35 185 l 35 0 l 813 0 l 813 361 z "},"Ļ":{"ha":847,"x_min":0,"x_max":0,"o":"m 35 788 l 111 788 l 111 185 l 35 185 l 35 0 l 813 0 l 813 361 l 579 361 l 579 185 l 400 185 l 400 788 l 474 788 l 474 971 l 35 971 z m 403 -461 b 547 -157 494 -381 551 -272 l 385 -114 b 300 -403 394 -249 364 -324 z "},"Ł":{"ha":847,"x_min":0,"x_max":0,"o":"m 579 361 l 579 185 l 400 185 l 400 471 l 493 490 l 493 628 l 400 608 l 400 788 l 474 788 l 474 971 l 35 971 l 35 788 l 111 788 l 111 549 l 22 531 l 22 393 l 111 411 l 111 185 l 35 185 l 35 0 l 813 0 l 813 361 z "},"M":{"ha":1400,"x_min":0,"x_max":0,"o":"m 1004 726 l 1004 644 l 1006 181 l 926 181 l 926 0 l 1365 0 l 1365 181 l 1289 181 l 1289 792 l 1365 792 l 1365 971 l 836 971 l 703 451 l 563 971 l 36 971 l 36 792 l 110 792 l 110 179 l 35 179 l 35 0 l 411 0 l 411 179 l 332 179 l 332 726 l 338 726 b 367 554 342 657 360 578 l 522 0 l 813 0 l 958 540 b 999 726 968 572 988 664 z "},"N":{"ha":1133,"x_min":0,"x_max":0,"o":"m 1099 971 l 681 971 l 681 792 l 775 792 l 776 461 l 435 971 l 36 971 l 36 792 l 117 792 l 117 179 l 35 179 l 35 0 l 461 0 l 461 179 l 354 179 l 354 529 l 708 0 l 1007 0 l 1007 792 l 1099 792 z "},"Ń":{"ha":1133,"x_min":0,"x_max":0,"o":"m 776 1247 l 565 1275 l 357 1115 l 513 1088 z m 1099 971 l 681 971 l 681 792 l 775 792 l 776 461 l 435 971 l 36 971 l 36 792 l 117 792 l 117 179 l 35 179 l 35 0 l 461 0 l 461 179 l 354 179 l 354 529 l 708 0 l 1007 0 l 1007 792 l 1099 792 z "},"Ň":{"ha":1133,"x_min":0,"x_max":0,"o":"m 631 1039 l 818 1199 l 657 1247 l 567 1125 l 475 1247 l 314 1199 l 501 1039 z m 681 971 l 681 792 l 775 792 l 776 461 l 435 971 l 36 971 l 36 792 l 117 792 l 117 179 l 35 179 l 35 0 l 461 0 l 461 179 l 354 179 l 354 529 l 708 0 l 1007 0 l 1007 792 l 1099 792 l 1099 971 z "},"Ņ":{"ha":1133,"x_min":0,"x_max":0,"o":"m 1099 971 l 681 971 l 681 792 l 775 792 l 776 461 l 435 971 l 36 971 l 36 792 l 117 792 l 117 179 l 35 179 l 35 0 l 461 0 l 461 179 l 354 179 l 354 529 l 708 0 l 1007 0 l 1007 792 l 1099 792 z m 546 -461 b 690 -157 638 -381 694 -272 l 528 -114 b 443 -403 538 -249 507 -324 z "},"Ŋ":{"ha":1133,"x_min":0,"x_max":0,"o":"m 681 971 l 681 792 l 775 792 l 776 461 l 435 971 l 36 971 l 36 792 l 117 792 l 117 179 l 35 179 l 35 0 l 461 0 l 461 179 l 354 179 l 354 529 l 708 0 b 593 -186 706 -137 660 -186 b 531 -174 568 -186 549 -182 l 532 -357 b 604 -372 553 -365 578 -372 b 1007 0 885 -372 1003 -237 l 1007 792 l 1099 792 l 1099 971 z "},"Ñ":{"ha":1133,"x_min":0,"x_max":0,"o":"m 660 1046 b 807 1182 735 1049 783 1103 l 710 1242 b 644 1167 706 1231 674 1169 b 471 1258 590 1161 565 1263 b 325 1122 397 1256 349 1201 l 424 1063 b 488 1138 425 1074 458 1135 b 660 1046 540 1143 568 1043 z m 1099 971 l 681 971 l 681 792 l 775 792 l 776 461 l 435 971 l 36 971 l 36 792 l 117 792 l 117 179 l 35 179 l 35 0 l 461 0 l 461 179 l 354 179 l 354 529 l 708 0 l 1007 0 l 1007 792 l 1099 792 z "},"O":{"ha":1028,"x_min":0,"x_max":0,"o":"m 518 -25 b 1007 481 832 -25 1007 167 b 508 997 1007 793 849 997 b 21 490 221 997 21 790 b 518 -25 21 143 228 -25 z m 518 193 b 364 490 429 193 364 308 b 507 783 364 663 422 785 b 660 481 614 783 660 649 b 518 193 660 308 606 193 z "},"Ó":{"ha":1028,"x_min":0,"x_max":0,"o":"m 724 1247 l 513 1275 l 304 1115 l 460 1088 z m 518 -25 b 1007 481 832 -25 1007 167 b 508 997 1007 793 849 997 b 21 490 221 997 21 790 b 518 -25 21 143 228 -25 z m 518 193 b 364 490 429 193 364 308 b 507 783 364 663 422 785 b 660 481 614 783 660 649 b 518 193 660 308 606 193 z "},"Ô":{"ha":1028,"x_min":0,"x_max":0,"o":"m 514 1161 l 604 1039 l 765 1088 l 578 1247 l 449 1247 l 261 1088 l 422 1039 z m 508 997 b 21 490 221 997 21 790 b 518 -25 21 143 228 -25 b 1007 481 832 -25 1007 167 b 508 997 1007 793 849 997 z m 518 193 b 364 490 429 193 364 308 b 507 783 364 663 422 785 b 660 481 614 783 660 649 b 518 193 660 308 606 193 z "},"Ö":{"ha":1028,"x_min":0,"x_max":0,"o":"m 354 1019 b 454 1121 408 1019 454 1065 b 354 1219 454 1174 408 1219 b 254 1121 299 1219 254 1174 b 354 1019 254 1065 299 1019 z m 674 1019 b 772 1121 728 1019 772 1065 b 674 1219 772 1174 728 1219 b 572 1121 618 1219 572 1174 b 674 1019 572 1065 618 1019 z m 518 -25 b 1007 481 832 -25 1007 167 b 508 997 1007 793 849 997 b 21 490 221 997 21 790 b 518 -25 21 143 228 -25 z m 518 193 b 364 490 429 193 364 308 b 507 783 364 663 422 785 b 660 481 614 783 660 649 b 518 193 660 308 606 193 z "},"Ò":{"ha":1028,"x_min":0,"x_max":0,"o":"m 304 1247 l 568 1088 l 724 1115 l 515 1275 z m 518 -25 b 1007 481 832 -25 1007 167 b 508 997 1007 793 849 997 b 21 490 221 997 21 790 b 518 -25 21 143 228 -25 z m 518 193 b 364 490 429 193 364 308 b 507 783 364 663 422 785 b 660 481 614 783 660 649 b 518 193 660 308 606 193 z "},"Ő":{"ha":1028,"x_min":0,"x_max":0,"o":"m 551 1261 l 368 1289 l 215 1115 l 315 1088 z m 813 1233 l 629 1261 l 449 1115 l 549 1088 z m 518 -25 b 1007 481 832 -25 1007 167 b 508 997 1007 793 849 997 b 21 490 221 997 21 790 b 518 -25 21 143 228 -25 z m 518 193 b 364 490 429 193 364 308 b 507 783 364 663 422 785 b 660 481 614 783 660 649 b 518 193 660 308 606 193 z "},"Ō":{"ha":1028,"x_min":0,"x_max":0,"o":"m 201 1218 l 201 1103 l 826 1103 l 826 1218 z m 518 -25 b 1007 481 832 -25 1007 167 b 508 997 1007 793 849 997 b 21 490 221 997 21 790 b 518 -25 21 143 228 -25 z m 518 193 b 364 490 429 193 364 308 b 507 783 364 663 422 785 b 660 481 614 783 660 649 b 518 193 660 308 606 193 z "},"Ø":{"ha":1028,"x_min":0,"x_max":0,"o":"m 879 863 l 953 972 l 814 1022 l 763 946 b 508 997 693 979 608 997 b 21 490 221 997 21 790 b 182 83 21 303 81 168 l 117 -12 l 256 -62 l 306 11 b 518 -25 368 -12 440 -25 b 1007 481 832 -25 1007 167 b 879 863 1007 640 965 772 z m 364 490 b 507 783 364 663 422 785 b 610 719 551 783 586 760 l 375 371 b 364 490 368 406 364 446 z m 518 193 b 447 222 492 193 468 203 l 658 535 b 660 481 660 517 660 499 b 518 193 660 308 606 193 z "},"Õ":{"ha":1028,"x_min":0,"x_max":0,"o":"m 607 1046 b 754 1182 682 1049 731 1103 l 657 1242 b 592 1167 653 1231 621 1169 b 418 1258 538 1161 513 1263 b 272 1122 344 1256 296 1201 l 371 1063 b 435 1138 372 1074 406 1135 b 607 1046 488 1143 515 1043 z m 518 -25 b 1007 481 832 -25 1007 167 b 508 997 1007 793 849 997 b 21 490 221 997 21 790 b 518 -25 21 143 228 -25 z m 518 193 b 364 490 429 193 364 308 b 507 783 364 663 422 785 b 660 481 614 783 660 649 b 518 193 660 308 606 193 z "},"Œ":{"ha":1540,"x_min":0,"x_max":0,"o":"m 1506 664 l 1506 971 l 700 971 b 508 997 644 988 581 997 b 21 490 221 997 21 790 b 518 -25 21 143 228 -25 b 699 0 585 -25 644 -17 l 1506 0 l 1506 314 l 1265 314 l 1265 185 l 1043 185 l 1043 411 l 1307 411 l 1307 596 l 1043 596 l 1043 788 l 1265 788 l 1265 664 z m 518 193 b 364 490 429 193 364 308 b 507 783 364 663 422 785 b 660 481 614 783 660 649 b 518 193 660 308 606 193 z "},"P":{"ha":889,"x_min":0,"x_max":0,"o":"m 35 789 l 113 789 l 113 183 l 35 183 l 35 0 l 482 0 l 482 183 l 397 183 l 397 399 l 503 399 b 868 674 701 399 868 490 b 485 971 868 832 807 971 l 35 971 z m 467 790 b 596 664 547 790 596 746 b 460 549 596 590 540 549 l 397 549 l 397 790 z "},"Þ":{"ha":982,"x_min":0,"x_max":0,"o":"m 663 735 l 479 735 l 479 788 l 635 788 l 635 971 l 35 971 l 35 788 l 192 788 l 192 185 l 35 185 l 35 0 l 635 0 l 635 185 l 479 185 l 479 238 l 667 238 b 968 497 897 238 968 333 b 663 735 968 647 901 735 z m 542 424 l 479 424 l 479 567 l 540 567 b 688 494 651 567 688 550 b 542 424 688 438 643 424 z "},"Q":{"ha":1049,"x_min":0,"x_max":0,"o":"m 496 0 b 604 8 533 0 571 3 b 819 -146 635 -74 706 -146 b 1028 76 958 -146 1028 -47 l 1028 147 l 936 147 l 936 107 b 908 44 936 83 933 44 b 847 135 874 44 858 92 b 963 482 924 218 963 336 b 488 975 963 778 815 975 b 21 492 208 975 21 775 b 496 0 21 164 215 0 z m 496 482 b 332 415 414 482 364 449 b 326 492 328 439 326 464 b 486 772 326 654 403 774 b 654 482 589 772 654 642 b 651 428 654 463 653 444 b 496 482 607 460 556 482 z m 496 208 b 403 254 463 208 431 224 b 496 356 422 310 450 356 b 569 239 543 356 560 308 b 496 208 547 219 522 208 z "},"R":{"ha":1024,"x_min":0,"x_max":0,"o":"m 35 789 l 113 789 l 113 183 l 35 183 l 35 0 l 483 0 l 483 183 l 399 183 l 399 399 b 538 242 522 399 538 368 b 807 -17 538 79 625 -17 b 1010 206 961 -17 1010 90 l 1010 282 l 917 282 l 917 236 b 885 192 917 208 906 192 b 851 286 860 192 851 226 b 669 483 851 386 765 469 b 871 685 785 500 871 576 b 486 971 871 843 808 971 l 35 971 z m 468 790 b 594 667 549 790 594 749 b 461 554 594 593 542 554 l 399 554 l 399 790 z "},"Ŕ":{"ha":1024,"x_min":0,"x_max":0,"o":"m 722 1247 l 511 1275 l 303 1115 l 458 1088 z m 35 789 l 113 789 l 113 183 l 35 183 l 35 0 l 483 0 l 483 183 l 399 183 l 399 399 b 538 242 522 399 538 368 b 807 -17 538 79 625 -17 b 1010 206 961 -17 1010 90 l 1010 282 l 917 282 l 917 236 b 885 192 917 208 906 192 b 851 286 860 192 851 226 b 669 483 851 386 765 469 b 871 685 785 500 871 576 b 486 971 871 843 808 971 l 35 971 z m 468 790 b 594 667 549 790 594 749 b 461 554 594 593 542 554 l 399 554 l 399 790 z "},"Ř":{"ha":1024,"x_min":0,"x_max":0,"o":"m 576 1039 l 764 1199 l 603 1247 l 513 1125 l 421 1247 l 260 1199 l 447 1039 z m 917 282 l 917 236 b 885 192 917 208 906 192 b 851 286 860 192 851 226 b 669 483 851 386 765 469 b 871 685 785 500 871 576 b 486 971 871 843 808 971 l 35 971 l 35 789 l 113 789 l 113 183 l 35 183 l 35 0 l 483 0 l 483 183 l 399 183 l 399 399 b 538 242 522 399 538 368 b 807 -17 538 79 625 -17 b 1010 206 961 -17 1010 90 l 1010 282 z m 461 554 l 399 554 l 399 790 l 468 790 b 594 667 549 790 594 749 b 461 554 594 593 542 554 z "},"Ŗ":{"ha":1024,"x_min":0,"x_max":0,"o":"m 35 789 l 113 789 l 113 183 l 35 183 l 35 0 l 483 0 l 483 183 l 399 183 l 399 399 b 538 242 522 399 538 368 b 807 -17 538 79 625 -17 b 1010 206 961 -17 1010 90 l 1010 282 l 917 282 l 917 236 b 885 192 917 208 906 192 b 851 286 860 192 851 226 b 669 483 851 386 765 469 b 871 685 785 500 871 576 b 486 971 871 843 808 971 l 35 971 z m 468 790 b 594 667 549 790 594 749 b 461 554 594 593 542 554 l 399 554 l 399 790 z m 492 -461 b 636 -157 583 -381 640 -272 l 474 -114 b 389 -403 483 -249 453 -324 z "},"S":{"ha":986,"x_min":0,"x_max":0,"o":"m 278 0 l 293 107 b 583 -21 346 44 443 -21 b 951 274 749 -21 951 57 b 401 710 951 600 401 567 b 497 783 401 758 457 783 b 675 622 594 783 675 725 l 926 622 l 926 971 l 688 971 l 674 854 b 383 996 618 958 500 996 b 53 697 247 996 53 903 b 586 281 53 343 586 389 b 468 211 586 222 517 211 b 293 350 410 214 293 233 l 35 350 l 35 0 z "},"Ś":{"ha":986,"x_min":0,"x_max":0,"o":"m 703 1247 l 492 1275 l 283 1115 l 439 1088 z m 278 0 l 293 107 b 583 -21 346 44 443 -21 b 951 274 749 -21 951 57 b 401 710 951 600 401 567 b 497 783 401 758 457 783 b 675 622 594 783 675 725 l 926 622 l 926 971 l 688 971 l 674 854 b 383 996 618 958 500 996 b 53 697 247 996 53 903 b 586 281 53 343 586 389 b 468 211 586 222 517 211 b 293 350 410 214 293 233 l 35 350 l 35 0 z "},"Š":{"ha":986,"x_min":0,"x_max":0,"o":"m 557 1039 l 744 1199 l 583 1247 l 493 1125 l 401 1247 l 240 1199 l 428 1039 z m 401 710 b 497 783 401 758 457 783 b 675 622 594 783 675 725 l 926 622 l 926 971 l 688 971 l 674 854 b 383 996 618 958 500 996 b 53 697 247 996 53 903 b 586 281 53 343 586 389 b 468 211 586 222 517 211 b 293 350 410 214 293 233 l 35 350 l 35 0 l 278 0 l 293 107 b 583 -21 346 44 443 -21 b 951 274 749 -21 951 57 b 401 710 951 600 401 567 z "},"Ş":{"ha":986,"x_min":0,"x_max":0,"o":"m 583 -21 b 951 274 749 -21 951 57 b 401 710 951 600 401 567 b 497 783 401 758 457 783 b 675 622 594 783 675 725 l 926 622 l 926 971 l 688 971 l 674 854 b 383 996 618 958 500 996 b 53 697 247 996 53 903 b 586 281 53 343 586 389 b 468 211 586 222 517 211 b 293 350 410 214 293 233 l 35 350 l 35 0 l 278 0 l 293 107 b 439 6 325 69 374 29 l 426 -143 l 517 -160 b 572 -122 519 -144 544 -122 b 625 -179 608 -122 625 -144 b 553 -236 625 -215 606 -233 b 458 -207 519 -237 478 -228 l 390 -272 b 558 -335 419 -304 479 -335 b 749 -172 649 -335 749 -281 b 599 -31 749 -78 676 -25 b 507 -78 543 -35 514 -65 l 511 -15 b 583 -21 533 -18 557 -21 z "},"Ș":{"ha":986,"x_min":0,"x_max":0,"o":"m 278 0 l 293 107 b 583 -21 346 44 443 -21 b 951 274 749 -21 951 57 b 401 710 951 600 401 567 b 497 783 401 758 457 783 b 675 622 594 783 675 725 l 926 622 l 926 971 l 688 971 l 674 854 b 383 996 618 958 500 996 b 53 697 247 996 53 903 b 586 281 53 343 586 389 b 468 211 586 222 517 211 b 293 350 410 214 293 233 l 35 350 l 35 0 z m 472 -461 b 617 -157 564 -381 621 -272 l 454 -114 b 369 -403 464 -249 433 -324 z "},"T":{"ha":974,"x_min":0,"x_max":0,"o":"m 21 971 l 21 610 l 225 610 l 225 788 l 344 788 l 344 185 l 231 185 l 231 0 l 747 0 l 747 185 l 632 185 l 632 788 l 749 788 l 749 610 l 953 610 l 953 971 z "},"Ŧ":{"ha":974,"x_min":0,"x_max":0,"o":"m 953 610 l 953 971 l 21 971 l 21 610 l 225 610 l 225 788 l 344 788 l 344 514 l 199 514 l 199 394 l 344 394 l 344 185 l 231 185 l 231 0 l 747 0 l 747 185 l 632 185 l 632 394 l 779 394 l 779 514 l 632 514 l 632 788 l 749 788 l 749 610 z "},"Ť":{"ha":974,"x_min":0,"x_max":0,"o":"m 551 1039 l 739 1199 l 578 1247 l 488 1125 l 396 1247 l 235 1199 l 422 1039 z m 21 971 l 21 610 l 225 610 l 225 788 l 344 788 l 344 185 l 231 185 l 231 0 l 747 0 l 747 185 l 632 185 l 632 788 l 749 788 l 749 610 l 953 610 l 953 971 z "},"Ţ":{"ha":974,"x_min":0,"x_max":0,"o":"m 21 971 l 21 610 l 225 610 l 225 788 l 344 788 l 344 185 l 231 185 l 231 0 l 433 0 l 421 -143 l 511 -160 b 567 -122 514 -144 539 -122 b 619 -179 603 -122 619 -144 b 547 -236 619 -215 600 -233 b 453 -207 514 -237 472 -228 l 385 -272 b 553 -335 414 -304 474 -335 b 743 -172 643 -335 743 -281 b 593 -31 743 -78 671 -25 b 501 -78 538 -35 508 -65 l 506 0 l 747 0 l 747 185 l 632 185 l 632 788 l 749 788 l 749 610 l 953 610 l 953 971 z "},"Ț":{"ha":974,"x_min":0,"x_max":0,"o":"m 21 971 l 21 610 l 225 610 l 225 788 l 344 788 l 344 185 l 231 185 l 231 0 l 747 0 l 747 185 l 632 185 l 632 788 l 749 788 l 749 610 l 953 610 l 953 971 z m 467 -461 b 611 -157 558 -381 615 -272 l 449 -114 b 364 -403 458 -249 428 -324 z "},"U":{"ha":1024,"x_min":0,"x_max":0,"o":"m 21 790 l 99 790 l 99 451 b 526 -24 99 122 251 -24 b 928 451 801 -24 928 122 l 928 792 l 1003 792 l 1003 971 l 592 971 l 592 788 l 667 788 l 667 493 b 526 221 667 265 613 221 b 388 493 440 221 388 265 l 388 792 l 463 792 l 463 971 l 21 971 z "},"Ú":{"ha":1024,"x_min":0,"x_max":0,"o":"m 736 1247 l 525 1275 l 317 1115 l 472 1088 z m 21 790 l 99 790 l 99 451 b 526 -24 99 122 251 -24 b 928 451 801 -24 928 122 l 928 792 l 1003 792 l 1003 971 l 592 971 l 592 788 l 667 788 l 667 493 b 526 221 667 265 613 221 b 388 493 440 221 388 265 l 388 792 l 463 792 l 463 971 l 21 971 z "},"Û":{"ha":1024,"x_min":0,"x_max":0,"o":"m 526 1161 l 617 1039 l 778 1088 l 590 1247 l 461 1247 l 274 1088 l 435 1039 z m 592 971 l 592 788 l 667 788 l 667 493 b 526 221 667 265 613 221 b 388 493 440 221 388 265 l 388 792 l 463 792 l 463 971 l 21 971 l 21 790 l 99 790 l 99 451 b 526 -24 99 122 251 -24 b 928 451 801 -24 928 122 l 928 792 l 1003 792 l 1003 971 z "},"Ü":{"ha":1024,"x_min":0,"x_max":0,"o":"m 367 1019 b 467 1121 421 1019 467 1065 b 367 1219 467 1174 421 1219 b 267 1121 311 1219 267 1174 b 367 1019 267 1065 311 1019 z m 686 1019 b 785 1121 740 1019 785 1065 b 686 1219 785 1174 740 1219 b 585 1121 631 1219 585 1174 b 686 1019 585 1065 631 1019 z m 21 790 l 99 790 l 99 451 b 526 -24 99 122 251 -24 b 928 451 801 -24 928 122 l 928 792 l 1003 792 l 1003 971 l 592 971 l 592 788 l 667 788 l 667 493 b 526 221 667 265 613 221 b 388 493 440 221 388 265 l 388 792 l 463 792 l 463 971 l 21 971 z "},"Ù":{"ha":1024,"x_min":0,"x_max":0,"o":"m 317 1247 l 581 1088 l 736 1115 l 528 1275 z m 21 790 l 99 790 l 99 451 b 526 -24 99 122 251 -24 b 928 451 801 -24 928 122 l 928 792 l 1003 792 l 1003 971 l 592 971 l 592 788 l 667 788 l 667 493 b 526 221 667 265 613 221 b 388 493 440 221 388 265 l 388 792 l 463 792 l 463 971 l 21 971 z "},"Ű":{"ha":1024,"x_min":0,"x_max":0,"o":"m 564 1261 l 381 1289 l 228 1115 l 328 1088 z m 825 1233 l 642 1261 l 461 1115 l 561 1088 z m 21 790 l 99 790 l 99 451 b 526 -24 99 122 251 -24 b 928 451 801 -24 928 122 l 928 792 l 1003 792 l 1003 971 l 592 971 l 592 788 l 667 788 l 667 493 b 526 221 667 265 613 221 b 388 493 440 221 388 265 l 388 792 l 463 792 l 463 971 l 21 971 z "},"Ū":{"ha":1024,"x_min":0,"x_max":0,"o":"m 214 1218 l 214 1103 l 839 1103 l 839 1218 z m 21 790 l 99 790 l 99 451 b 526 -24 99 122 251 -24 b 928 451 801 -24 928 122 l 928 792 l 1003 792 l 1003 971 l 592 971 l 592 788 l 667 788 l 667 493 b 526 221 667 265 613 221 b 388 493 440 221 388 265 l 388 792 l 463 792 l 463 971 l 21 971 z "},"Ų":{"ha":1024,"x_min":0,"x_max":0,"o":"m 592 971 l 592 788 l 667 788 l 667 493 b 526 221 667 265 613 221 b 388 493 440 221 388 265 l 388 792 l 463 792 l 463 971 l 21 971 l 21 790 l 99 790 l 99 451 b 526 -24 99 122 251 -24 b 567 -22 540 -24 554 -24 b 519 -150 542 -51 519 -93 b 904 -239 519 -287 706 -349 l 832 -137 b 635 -85 685 -194 635 -129 b 681 -4 635 -54 657 -26 b 928 451 849 46 928 192 l 928 792 l 1003 792 l 1003 971 z "},"Ů":{"ha":1024,"x_min":0,"x_max":0,"o":"m 526 1013 b 668 1154 604 1013 668 1076 b 526 1296 668 1232 604 1296 b 385 1154 449 1296 385 1232 b 526 1013 385 1076 449 1013 z m 526 1103 b 475 1154 499 1103 475 1126 b 526 1206 475 1182 499 1206 b 578 1154 554 1206 578 1182 b 526 1103 578 1126 554 1103 z m 21 790 l 99 790 l 99 451 b 526 -24 99 122 251 -24 b 928 451 801 -24 928 122 l 928 792 l 1003 792 l 1003 971 l 592 971 l 592 788 l 667 788 l 667 493 b 526 221 667 265 613 221 b 388 493 440 221 388 265 l 388 792 l 463 792 l 463 971 l 21 971 z "},"V":{"ha":1074,"x_min":0,"x_max":0,"o":"m 583 311 b 540 479 581 350 563 411 l 422 790 l 497 790 l 499 971 l -14 971 l -14 790 l 63 790 l 431 0 l 686 0 l 1019 790 l 1088 790 l 1088 971 l 693 971 l 694 790 l 767 790 l 640 488 b 590 311 613 418 593 350 z "},"W":{"ha":1410,"x_min":0,"x_max":0,"o":"m 444 314 b 400 588 439 356 415 521 l 364 790 l 444 790 l 444 971 l -14 971 l -14 790 l 64 790 l 247 0 l 569 0 l 654 333 b 688 503 664 374 682 461 l 693 503 b 728 331 700 460 715 378 l 811 0 l 1140 0 l 1347 790 l 1424 790 l 1424 971 l 1026 971 l 1026 790 l 1103 790 l 1056 579 b 1014 314 1043 521 1019 376 l 1007 314 b 965 588 1000 383 985 497 l 878 971 l 589 971 l 519 658 b 451 314 492 526 454 353 z "},"Ẃ":{"ha":1410,"x_min":0,"x_max":0,"o":"m 915 1247 l 704 1275 l 496 1115 l 651 1088 z m 444 314 b 400 588 439 356 415 521 l 364 790 l 444 790 l 444 971 l -14 971 l -14 790 l 64 790 l 247 0 l 569 0 l 654 333 b 688 503 664 374 682 461 l 693 503 b 728 331 700 460 715 378 l 811 0 l 1140 0 l 1347 790 l 1424 790 l 1424 971 l 1026 971 l 1026 790 l 1103 790 l 1056 579 b 1014 314 1043 521 1019 376 l 1007 314 b 965 588 1000 383 985 497 l 878 971 l 589 971 l 519 658 b 451 314 492 526 454 353 z "},"Ŵ":{"ha":1410,"x_min":0,"x_max":0,"o":"m 706 1161 l 796 1039 l 957 1088 l 769 1247 l 640 1247 l 453 1088 l 614 1039 z m 1026 971 l 1026 790 l 1103 790 l 1056 579 b 1014 314 1043 521 1019 376 l 1007 314 b 965 588 1000 383 985 497 l 878 971 l 589 971 l 519 658 b 451 314 492 526 454 353 l 444 314 b 400 588 439 356 415 521 l 364 790 l 444 790 l 444 971 l -14 971 l -14 790 l 64 790 l 247 0 l 569 0 l 654 333 b 688 503 664 374 682 461 l 693 503 b 728 331 700 460 715 378 l 811 0 l 1140 0 l 1347 790 l 1424 790 l 1424 971 z "},"Ẅ":{"ha":1410,"x_min":0,"x_max":0,"o":"m 546 1019 b 646 1121 600 1019 646 1065 b 546 1219 646 1174 600 1219 b 446 1121 490 1219 446 1174 b 546 1019 446 1065 490 1019 z m 865 1019 b 964 1121 919 1019 964 1065 b 865 1219 964 1174 919 1219 b 764 1121 810 1219 764 1174 b 865 1019 764 1065 810 1019 z m 444 314 b 400 588 439 356 415 521 l 364 790 l 444 790 l 444 971 l -14 971 l -14 790 l 64 790 l 247 0 l 569 0 l 654 333 b 688 503 664 374 682 461 l 693 503 b 728 331 700 460 715 378 l 811 0 l 1140 0 l 1347 790 l 1424 790 l 1424 971 l 1026 971 l 1026 790 l 1103 790 l 1056 579 b 1014 314 1043 521 1019 376 l 1007 314 b 965 588 1000 383 985 497 l 878 971 l 589 971 l 519 658 b 451 314 492 526 454 353 z "},"Ẁ":{"ha":1410,"x_min":0,"x_max":0,"o":"m 496 1247 l 760 1088 l 915 1115 l 707 1275 z m 444 314 b 400 588 439 356 415 521 l 364 790 l 444 790 l 444 971 l -14 971 l -14 790 l 64 790 l 247 0 l 569 0 l 654 333 b 688 503 664 374 682 461 l 693 503 b 728 331 700 460 715 378 l 811 0 l 1140 0 l 1347 790 l 1424 790 l 1424 971 l 1026 971 l 1026 790 l 1103 790 l 1056 579 b 1014 314 1043 521 1019 376 l 1007 314 b 965 588 1000 383 985 497 l 878 971 l 589 971 l 519 658 b 451 314 492 526 454 353 z "},"X":{"ha":1160,"x_min":0,"x_max":0,"o":"m 496 179 l 372 179 l 515 361 l 650 181 l 571 181 l 571 0 l 1125 0 l 1125 181 l 1044 181 l 794 522 l 1004 790 l 1122 790 l 1122 971 l 661 971 l 661 790 l 783 790 l 642 606 l 506 790 l 586 790 l 586 971 l 36 971 l 36 790 l 108 790 l 360 444 l 156 179 l 35 179 l 35 0 l 496 0 z "},"Y":{"ha":929,"x_min":0,"x_max":0,"o":"m 513 533 b 469 646 507 557 478 619 l 389 793 l 461 793 l 461 971 l -14 971 l -14 793 l 54 793 l 324 344 l 324 181 l 244 181 l 244 0 l 689 0 l 689 181 l 611 181 l 611 342 l 868 793 l 943 793 l 943 971 l 569 971 l 569 793 l 646 793 l 569 653 b 518 533 554 619 524 561 z "},"Ý":{"ha":929,"x_min":0,"x_max":0,"o":"m 675 1247 l 464 1275 l 256 1115 l 411 1088 z m 513 533 b 469 646 507 557 478 619 l 389 793 l 461 793 l 461 971 l -14 971 l -14 793 l 54 793 l 324 344 l 324 181 l 244 181 l 244 0 l 689 0 l 689 181 l 611 181 l 611 342 l 868 793 l 943 793 l 943 971 l 569 971 l 569 793 l 646 793 l 569 653 b 518 533 554 619 524 561 z "},"Ŷ":{"ha":929,"x_min":0,"x_max":0,"o":"m 465 1161 l 556 1039 l 717 1088 l 529 1247 l 400 1247 l 213 1088 l 374 1039 z m 569 971 l 569 793 l 646 793 l 569 653 b 518 533 554 619 524 561 l 513 533 b 469 646 507 557 478 619 l 389 793 l 461 793 l 461 971 l -14 971 l -14 793 l 54 793 l 324 344 l 324 181 l 244 181 l 244 0 l 689 0 l 689 181 l 611 181 l 611 342 l 868 793 l 943 793 l 943 971 z "},"Ÿ":{"ha":929,"x_min":0,"x_max":0,"o":"m 306 1019 b 406 1121 360 1019 406 1065 b 306 1219 406 1174 360 1219 b 206 1121 250 1219 206 1174 b 306 1019 206 1065 250 1019 z m 625 1019 b 724 1121 679 1019 724 1065 b 625 1219 724 1174 679 1219 b 524 1121 569 1219 524 1174 b 625 1019 524 1065 569 1019 z m 513 533 b 469 646 507 557 478 619 l 389 793 l 461 793 l 461 971 l -14 971 l -14 793 l 54 793 l 324 344 l 324 181 l 244 181 l 244 0 l 689 0 l 689 181 l 611 181 l 611 342 l 868 793 l 943 793 l 943 971 l 569 971 l 569 793 l 646 793 l 569 653 b 518 533 554 619 524 561 z "},"Ỳ":{"ha":929,"x_min":0,"x_max":0,"o":"m 256 1247 l 519 1088 l 675 1115 l 467 1275 z m 513 533 b 469 646 507 557 478 619 l 389 793 l 461 793 l 461 971 l -14 971 l -14 793 l 54 793 l 324 344 l 324 181 l 244 181 l 244 0 l 689 0 l 689 181 l 611 181 l 611 342 l 868 793 l 943 793 l 943 971 l 569 971 l 569 793 l 646 793 l 569 653 b 518 533 554 619 524 561 z "},"Z":{"ha":992,"x_min":0,"x_max":0,"o":"m 279 606 l 278 786 l 540 788 l 35 181 l 35 0 l 953 0 l 953 361 l 707 361 l 706 183 l 449 183 l 957 786 l 954 971 l 43 971 l 43 606 z "},"Ź":{"ha":992,"x_min":0,"x_max":0,"o":"m 706 1247 l 494 1275 l 286 1115 l 442 1088 z m 279 606 l 278 786 l 540 788 l 35 181 l 35 0 l 953 0 l 953 361 l 707 361 l 706 183 l 449 183 l 957 786 l 954 971 l 43 971 l 43 606 z "},"Ž":{"ha":992,"x_min":0,"x_max":0,"o":"m 560 1039 l 747 1199 l 586 1247 l 496 1125 l 404 1247 l 243 1199 l 431 1039 z m 706 183 l 449 183 l 957 786 l 954 971 l 43 971 l 43 606 l 279 606 l 278 786 l 540 788 l 35 181 l 35 0 l 953 0 l 953 361 l 707 361 z "},"Ż":{"ha":992,"x_min":0,"x_max":0,"o":"m 497 1019 b 596 1121 551 1019 596 1065 b 497 1219 596 1174 551 1219 b 396 1121 442 1219 396 1174 b 497 1019 396 1065 442 1019 z m 279 606 l 278 786 l 540 788 l 35 181 l 35 0 l 953 0 l 953 361 l 707 361 l 706 183 l 449 183 l 957 786 l 954 971 l 43 971 l 43 606 z "},"a":{"ha":833,"x_min":0,"x_max":0,"o":"m 108 475 b 315 539 161 504 233 539 b 447 461 390 539 447 524 l 447 413 b 310 461 440 421 392 461 b 21 206 153 461 21 363 b 294 -26 21 44 163 -26 b 482 63 344 -26 431 -8 l 515 0 l 813 0 l 813 178 l 729 178 l 729 449 b 353 735 729 672 519 735 b 50 636 225 735 106 669 z m 358 154 b 285 219 317 154 285 181 b 365 293 285 263 310 293 b 447 253 424 293 443 260 l 447 200 b 358 154 435 179 400 154 z "},"á":{"ha":833,"x_min":0,"x_max":0,"o":"m 626 971 l 415 999 l 207 839 l 363 811 z m 108 475 b 315 539 161 504 233 539 b 447 461 390 539 447 524 l 447 413 b 310 461 440 421 392 461 b 21 206 153 461 21 363 b 294 -26 21 44 163 -26 b 482 63 344 -26 431 -8 l 515 0 l 813 0 l 813 178 l 729 178 l 729 449 b 353 735 729 672 519 735 b 50 636 225 735 106 669 z m 358 154 b 285 219 317 154 285 181 b 365 293 285 263 310 293 b 447 253 424 293 443 260 l 447 200 b 358 154 435 179 400 154 z "},"ă":{"ha":833,"x_min":0,"x_max":0,"o":"m 614 919 l 472 951 b 417 856 472 892 446 856 b 360 951 386 856 360 892 l 218 919 b 417 747 224 814 310 747 b 614 919 522 747 608 814 z m 108 475 b 315 539 161 504 233 539 b 447 461 390 539 447 524 l 447 413 b 310 461 440 421 392 461 b 21 206 153 461 21 363 b 294 -26 21 44 163 -26 b 482 63 344 -26 431 -8 l 515 0 l 813 0 l 813 178 l 729 178 l 729 449 b 353 735 729 672 519 735 b 50 636 225 735 106 669 z m 358 154 b 285 219 317 154 285 181 b 365 293 285 263 310 293 b 447 253 424 293 443 260 l 447 200 b 358 154 435 179 400 154 z "},"â":{"ha":833,"x_min":0,"x_max":0,"o":"m 417 885 l 507 763 l 668 811 l 481 971 l 351 971 l 164 811 l 325 763 z m 729 178 l 729 449 b 353 735 729 672 519 735 b 50 636 225 735 106 669 l 108 475 b 315 539 161 504 233 539 b 447 461 390 539 447 524 l 447 413 b 310 461 440 421 392 461 b 21 206 153 461 21 363 b 294 -26 21 44 163 -26 b 482 63 344 -26 431 -8 l 515 0 l 813 0 l 813 178 z m 447 200 b 358 154 435 179 400 154 b 285 219 317 154 285 181 b 365 293 285 263 310 293 b 447 253 424 293 443 260 z "},"ä":{"ha":833,"x_min":0,"x_max":0,"o":"m 257 743 b 357 844 311 743 357 789 b 257 943 357 897 311 943 b 157 844 201 943 157 897 b 257 743 157 789 201 743 z m 576 743 b 675 844 631 743 675 789 b 576 943 675 897 631 943 b 475 844 521 943 475 897 b 576 743 475 789 521 743 z m 108 475 b 315 539 161 504 233 539 b 447 461 390 539 447 524 l 447 413 b 310 461 440 421 392 461 b 21 206 153 461 21 363 b 294 -26 21 44 163 -26 b 482 63 344 -26 431 -8 l 515 0 l 813 0 l 813 178 l 729 178 l 729 449 b 353 735 729 672 519 735 b 50 636 225 735 106 669 z m 358 154 b 285 219 317 154 285 181 b 365 293 285 263 310 293 b 447 253 424 293 443 260 l 447 200 b 358 154 435 179 400 154 z "},"à":{"ha":833,"x_min":0,"x_max":0,"o":"m 207 971 l 471 811 l 626 839 l 418 999 z m 108 475 b 315 539 161 504 233 539 b 447 461 390 539 447 524 l 447 413 b 310 461 440 421 392 461 b 21 206 153 461 21 363 b 294 -26 21 44 163 -26 b 482 63 344 -26 431 -8 l 515 0 l 813 0 l 813 178 l 729 178 l 729 449 b 353 735 729 672 519 735 b 50 636 225 735 106 669 z m 358 154 b 285 219 317 154 285 181 b 365 293 285 263 310 293 b 447 253 424 293 443 260 l 447 200 b 358 154 435 179 400 154 z "},"ā":{"ha":833,"x_min":0,"x_max":0,"o":"m 104 942 l 104 826 l 729 826 l 729 942 z m 108 475 b 315 539 161 504 233 539 b 447 461 390 539 447 524 l 447 413 b 310 461 440 421 392 461 b 21 206 153 461 21 363 b 294 -26 21 44 163 -26 b 482 63 344 -26 431 -8 l 515 0 l 813 0 l 813 178 l 729 178 l 729 449 b 353 735 729 672 519 735 b 50 636 225 735 106 669 z m 358 154 b 285 219 317 154 285 181 b 365 293 285 263 310 293 b 447 253 424 293 443 260 l 447 200 b 358 154 435 179 400 154 z "},"ą":{"ha":833,"x_min":0,"x_max":0,"o":"m 915 -137 b 718 -85 768 -194 718 -129 b 768 0 718 -51 743 -24 l 813 0 l 813 178 l 729 178 l 729 449 b 353 735 729 672 519 735 b 50 636 225 735 106 669 l 108 475 b 315 539 161 504 233 539 b 447 461 390 539 447 524 l 447 413 b 310 461 440 421 392 461 b 21 206 153 461 21 363 b 294 -26 21 44 163 -26 b 482 63 344 -26 431 -8 l 515 0 l 672 0 b 603 -150 640 -29 603 -76 b 988 -239 603 -287 789 -349 z m 447 200 b 358 154 435 179 400 154 b 285 219 317 154 285 181 b 365 293 285 263 310 293 b 447 253 424 293 443 260 z "},"å":{"ha":833,"x_min":0,"x_max":0,"o":"m 417 736 b 558 878 494 736 558 800 b 417 1019 558 956 494 1019 b 275 878 339 1019 275 956 b 417 736 275 800 339 736 z m 417 826 b 365 878 389 826 365 850 b 417 929 365 906 389 929 b 468 878 444 929 468 906 b 417 826 468 850 444 826 z m 108 475 b 315 539 161 504 233 539 b 447 461 390 539 447 524 l 447 413 b 310 461 440 421 392 461 b 21 206 153 461 21 363 b 294 -26 21 44 163 -26 b 482 63 344 -26 431 -8 l 515 0 l 813 0 l 813 178 l 729 178 l 729 449 b 353 735 729 672 519 735 b 50 636 225 735 106 669 z m 358 154 b 285 219 317 154 285 181 b 365 293 285 263 310 293 b 447 253 424 293 443 260 l 447 200 b 358 154 435 179 400 154 z "},"ã":{"ha":833,"x_min":0,"x_max":0,"o":"m 510 769 b 657 906 585 772 633 826 l 560 965 b 494 890 556 954 524 893 b 321 982 440 885 415 986 b 175 846 247 979 199 925 l 274 786 b 338 861 275 797 308 858 b 510 769 390 867 418 767 z m 108 475 b 315 539 161 504 233 539 b 447 461 390 539 447 524 l 447 413 b 310 461 440 421 392 461 b 21 206 153 461 21 363 b 294 -26 21 44 163 -26 b 482 63 344 -26 431 -8 l 515 0 l 813 0 l 813 178 l 729 178 l 729 449 b 353 735 729 672 519 735 b 50 636 225 735 106 669 z m 358 154 b 285 219 317 154 285 181 b 365 293 285 263 310 293 b 447 253 424 293 443 260 l 447 200 b 358 154 435 179 400 154 z "},"æ":{"ha":1219,"x_min":0,"x_max":0,"o":"m 1185 96 l 1068 231 b 874 164 993 168 921 164 b 731 278 757 164 739 240 l 1168 278 b 1165 513 1197 357 1182 464 b 833 714 1125 629 999 714 b 607 649 747 714 669 692 b 353 735 539 710 446 735 b 50 636 225 735 106 669 l 108 475 b 315 539 161 504 233 539 b 447 461 390 539 447 524 l 447 413 b 310 461 440 421 392 461 b 21 206 153 461 21 363 b 294 -26 21 44 163 -26 b 579 63 429 -26 518 14 b 826 -25 650 3 740 -25 b 1185 96 971 -25 1082 7 z m 842 526 b 944 415 931 526 943 468 l 735 415 b 842 526 738 450 757 526 z m 447 200 b 358 154 435 179 400 154 b 285 219 317 154 285 181 b 365 293 285 263 310 293 b 447 253 424 293 443 260 z "},"b":{"ha":911,"x_min":0,"x_max":0,"o":"m 356 0 l 376 47 b 560 -15 415 14 454 -15 b 881 342 756 -15 876 128 b 561 706 885 528 772 706 b 379 640 493 706 410 676 l 379 1042 l 43 1042 l 43 860 l 101 860 l 101 181 l 43 181 l 43 0 z m 575 339 b 476 165 575 233 535 165 b 376 332 424 165 376 238 b 475 510 371 442 421 510 b 575 339 536 510 575 422 z "},"c":{"ha":738,"x_min":0,"x_max":0,"o":"m 704 381 l 704 694 l 540 694 l 517 628 b 343 707 493 656 438 707 b 1 351 165 707 1 597 b 383 -19 1 104 179 -19 b 724 122 533 -19 658 51 l 601 264 b 433 185 556 214 507 183 b 290 349 344 186 290 258 b 413 526 290 439 331 526 b 500 381 476 526 497 447 z "},"ć":{"ha":738,"x_min":0,"x_max":0,"o":"m 579 971 l 368 999 l 160 839 l 315 811 z m 704 381 l 704 694 l 540 694 l 517 628 b 343 707 493 656 438 707 b 1 351 165 707 1 597 b 383 -19 1 104 179 -19 b 724 122 533 -19 658 51 l 601 264 b 433 185 556 214 507 183 b 290 349 344 186 290 258 b 413 526 290 439 331 526 b 500 381 476 526 497 447 z "},"č":{"ha":738,"x_min":0,"x_max":0,"o":"m 433 763 l 621 922 l 460 971 l 369 849 l 278 971 l 117 922 l 304 763 z m 601 264 b 433 185 556 214 507 183 b 290 349 344 186 290 258 b 413 526 290 439 331 526 b 500 381 476 526 497 447 l 704 381 l 704 694 l 540 694 l 517 628 b 343 707 493 656 438 707 b 1 351 165 707 1 597 b 383 -19 1 104 179 -19 b 724 122 533 -19 658 51 z "},"ç":{"ha":738,"x_min":0,"x_max":0,"o":"m 724 122 l 601 264 b 433 185 556 214 507 183 b 290 349 344 186 290 258 b 413 526 290 439 331 526 b 500 381 476 526 497 447 l 704 381 l 704 694 l 540 694 l 517 628 b 343 707 493 656 438 707 b 1 351 165 707 1 597 b 314 -14 1 133 140 11 l 303 -143 l 393 -160 b 449 -122 396 -144 421 -122 b 501 -179 485 -122 501 -144 b 429 -236 501 -215 482 -233 b 335 -207 396 -237 354 -228 l 267 -272 b 435 -335 296 -304 356 -335 b 625 -172 525 -335 625 -281 b 475 -31 625 -78 553 -25 b 383 -78 419 -35 390 -65 l 386 -19 b 724 122 535 -18 658 51 z "},"ċ":{"ha":738,"x_min":0,"x_max":0,"o":"m 371 743 b 469 844 425 743 469 789 b 371 943 469 897 425 943 b 269 844 315 943 269 897 b 371 743 269 789 315 743 z m 704 381 l 704 694 l 540 694 l 517 628 b 343 707 493 656 438 707 b 1 351 165 707 1 597 b 383 -19 1 104 179 -19 b 724 122 533 -19 658 51 l 601 264 b 433 185 556 214 507 183 b 290 349 344 186 290 258 b 413 526 290 439 331 526 b 500 381 476 526 497 447 z "},"d":{"ha":881,"x_min":0,"x_max":0,"o":"m 511 656 b 336 708 485 672 435 708 b 14 354 165 708 14 571 b 336 -12 14 161 140 -12 b 511 51 432 -12 493 35 l 535 0 l 860 0 l 860 181 l 793 181 l 793 1042 l 447 1042 l 447 861 l 511 861 z m 313 354 b 411 528 313 460 353 528 b 511 361 464 528 511 456 b 413 183 517 251 467 183 b 313 354 351 183 313 271 z "},"ð":{"ha":810,"x_min":0,"x_max":0,"o":"m 782 344 b 474 1013 782 654 717 892 l 507 1067 l 422 1117 l 382 1050 b 274 1078 349 1061 313 1071 l 192 919 b 288 897 203 918 242 913 l 231 806 l 315 756 l 378 856 b 486 703 429 824 474 775 b 396 711 457 708 426 711 b 15 350 204 711 17 582 b 403 -18 13 104 204 -18 b 782 344 614 -18 785 114 z m 403 160 b 300 349 344 160 300 235 b 396 531 300 450 342 531 b 497 344 461 529 497 449 b 403 160 497 240 463 160 z "},"ď":{"ha":1068,"x_min":0,"x_max":0,"o":"m 975 1096 b 839 960 900 1096 839 1035 b 924 835 839 904 874 856 b 897 697 957 811 932 733 l 957 660 b 1110 960 1000 693 1110 817 b 975 1096 1110 1035 1049 1096 z m 793 1042 l 447 1042 l 447 861 l 511 861 l 511 656 b 336 708 485 672 435 708 b 14 354 165 708 14 571 b 336 -12 14 161 140 -12 b 511 51 432 -12 493 35 l 535 0 l 860 0 l 860 181 l 793 181 z m 413 183 b 313 354 351 183 313 271 b 411 528 313 460 353 528 b 511 361 464 528 511 456 b 413 183 517 251 467 183 z "},"đ":{"ha":881,"x_min":0,"x_max":0,"o":"m 904 721 l 904 836 l 793 836 l 793 1042 l 447 1042 l 447 861 l 511 861 l 511 836 l 435 836 l 435 721 l 511 721 l 511 656 b 336 708 485 672 435 708 b 14 354 165 708 14 571 b 336 -12 14 161 140 -12 b 511 51 432 -12 493 35 l 535 0 l 860 0 l 860 181 l 793 181 l 793 721 z m 413 183 b 313 354 351 183 313 271 b 411 528 313 460 353 528 b 511 361 464 528 511 456 b 413 183 517 251 467 183 z "},"e":{"ha":753,"x_min":0,"x_max":0,"o":"m 615 231 b 421 164 540 168 468 164 b 278 278 304 164 286 240 l 715 278 b 713 513 744 357 729 464 b 381 714 672 629 546 714 b 7 351 171 714 7 579 b 374 -25 7 85 201 -25 b 732 96 518 -25 629 7 z m 389 526 b 492 415 478 526 490 468 l 282 415 b 389 526 285 450 304 526 z "},"é":{"ha":753,"x_min":0,"x_max":0,"o":"m 586 971 l 375 999 l 167 839 l 322 811 z m 615 231 b 421 164 540 168 468 164 b 278 278 304 164 286 240 l 715 278 b 713 513 744 357 729 464 b 381 714 672 629 546 714 b 7 351 171 714 7 579 b 374 -25 7 85 201 -25 b 732 96 518 -25 629 7 z m 389 526 b 492 415 478 526 490 468 l 282 415 b 389 526 285 450 304 526 z "},"ě":{"ha":753,"x_min":0,"x_max":0,"o":"m 440 763 l 628 922 l 467 971 l 376 849 l 285 971 l 124 922 l 311 763 z m 615 231 b 421 164 540 168 468 164 b 278 278 304 164 286 240 l 715 278 b 713 513 744 357 729 464 b 381 714 672 629 546 714 b 7 351 171 714 7 579 b 374 -25 7 85 201 -25 b 732 96 518 -25 629 7 z m 389 526 b 492 415 478 526 490 468 l 282 415 b 389 526 285 450 304 526 z "},"ê":{"ha":753,"x_min":0,"x_max":0,"o":"m 376 885 l 467 763 l 628 811 l 440 971 l 311 971 l 124 811 l 285 763 z m 615 231 b 421 164 540 168 468 164 b 278 278 304 164 286 240 l 715 278 b 713 513 744 357 729 464 b 381 714 672 629 546 714 b 7 351 171 714 7 579 b 374 -25 7 85 201 -25 b 732 96 518 -25 629 7 z m 389 526 b 492 415 478 526 490 468 l 282 415 b 389 526 285 450 304 526 z "},"ë":{"ha":753,"x_min":0,"x_max":0,"o":"m 217 743 b 317 844 271 743 317 789 b 217 943 317 897 271 943 b 117 844 161 943 117 897 b 217 743 117 789 161 743 z m 536 743 b 635 844 590 743 635 789 b 536 943 635 897 590 943 b 435 844 481 943 435 897 b 536 743 435 789 481 743 z m 615 231 b 421 164 540 168 468 164 b 278 278 304 164 286 240 l 715 278 b 713 513 744 357 729 464 b 381 714 672 629 546 714 b 7 351 171 714 7 579 b 374 -25 7 85 201 -25 b 732 96 518 -25 629 7 z m 389 526 b 492 415 478 526 490 468 l 282 415 b 389 526 285 450 304 526 z "},"ė":{"ha":753,"x_min":0,"x_max":0,"o":"m 378 743 b 476 844 432 743 476 789 b 378 943 476 897 432 943 b 276 844 322 943 276 897 b 378 743 276 789 322 743 z m 615 231 b 421 164 540 168 468 164 b 278 278 304 164 286 240 l 715 278 b 713 513 744 357 729 464 b 381 714 672 629 546 714 b 7 351 171 714 7 579 b 374 -25 7 85 201 -25 b 732 96 518 -25 629 7 z m 389 526 b 492 415 478 526 490 468 l 282 415 b 389 526 285 450 304 526 z "},"è":{"ha":753,"x_min":0,"x_max":0,"o":"m 167 971 l 431 811 l 586 839 l 378 999 z m 615 231 b 421 164 540 168 468 164 b 278 278 304 164 286 240 l 715 278 b 713 513 744 357 729 464 b 381 714 672 629 546 714 b 7 351 171 714 7 579 b 374 -25 7 85 201 -25 b 732 96 518 -25 629 7 z m 389 526 b 492 415 478 526 490 468 l 282 415 b 389 526 285 450 304 526 z "},"ē":{"ha":753,"x_min":0,"x_max":0,"o":"m 64 942 l 64 826 l 689 826 l 689 942 z m 615 231 b 421 164 540 168 468 164 b 278 278 304 164 286 240 l 715 278 b 713 513 744 357 729 464 b 381 714 672 629 546 714 b 7 351 171 714 7 579 b 374 -25 7 85 201 -25 b 732 96 518 -25 629 7 z m 389 526 b 492 415 478 526 490 468 l 282 415 b 389 526 285 450 304 526 z "},"ę":{"ha":753,"x_min":0,"x_max":0,"o":"m 725 -137 b 528 -85 578 -194 528 -129 b 586 8 528 -47 560 -15 b 732 96 639 28 686 56 l 615 231 b 421 164 540 168 468 164 b 278 278 304 164 286 240 l 715 278 b 713 513 744 357 729 464 b 381 714 672 629 546 714 b 7 351 171 714 7 579 b 374 -25 7 85 201 -25 b 461 -21 404 -25 433 -24 b 413 -150 436 -50 413 -92 b 797 -239 413 -287 599 -349 z m 389 526 b 492 415 478 526 490 468 l 282 415 b 389 526 285 450 304 526 z "},"f":{"ha":536,"x_min":0,"x_max":0,"o":"m 571 1032 b 367 1067 535 1050 439 1067 b 92 813 117 1067 92 892 l 92 694 l 35 694 l 35 514 l 92 514 l 92 182 l 36 182 l 36 0 l 450 0 l 450 182 l 367 182 l 367 514 l 493 514 l 493 694 l 367 694 l 367 813 b 411 886 367 863 381 886 b 488 872 449 886 472 879 z "},"g":{"ha":889,"x_min":0,"x_max":0,"o":"m 33 -162 b 351 -285 86 -211 199 -283 b 785 97 643 -283 785 -133 l 785 513 l 868 513 l 868 694 l 538 694 l 510 651 b 363 708 482 679 424 708 b 14 351 133 708 14 567 b 347 4 14 176 108 4 b 510 81 436 4 490 56 l 510 33 b 349 -97 510 -25 474 -97 b 107 -8 243 -97 139 -36 z m 310 354 b 408 528 310 460 350 528 b 508 361 461 528 508 456 b 410 183 514 251 464 183 b 310 354 349 183 310 271 z "},"ğ":{"ha":889,"x_min":0,"x_max":0,"o":"m 642 919 l 500 951 b 444 856 500 892 474 856 b 388 951 414 856 388 892 l 246 919 b 444 747 251 814 338 747 b 642 919 550 747 636 814 z m 33 -162 b 351 -285 86 -211 199 -283 b 785 97 643 -283 785 -133 l 785 513 l 868 513 l 868 694 l 538 694 l 510 651 b 363 708 482 679 424 708 b 14 351 133 708 14 567 b 347 4 14 176 108 4 b 510 81 436 4 490 56 l 510 33 b 349 -97 510 -25 474 -97 b 107 -8 243 -97 139 -36 z m 310 354 b 408 528 310 460 350 528 b 508 361 461 528 508 456 b 410 183 514 251 464 183 b 310 354 349 183 310 271 z "},"ģ":{"ha":889,"x_min":0,"x_max":0,"o":"m 468 1065 b 338 818 379 1004 335 911 l 483 783 b 551 1018 476 893 500 954 z m 33 -162 b 351 -285 86 -211 199 -283 b 785 97 643 -283 785 -133 l 785 513 l 868 513 l 868 694 l 538 694 l 510 651 b 363 708 482 679 424 708 b 14 351 133 708 14 567 b 347 4 14 176 108 4 b 510 81 436 4 490 56 l 510 33 b 349 -97 510 -25 474 -97 b 107 -8 243 -97 139 -36 z m 310 354 b 408 528 310 460 350 528 b 508 361 461 528 508 456 b 410 183 514 251 464 183 b 310 354 349 183 310 271 z "},"ġ":{"ha":889,"x_min":0,"x_max":0,"o":"m 446 743 b 544 844 500 743 544 789 b 446 943 544 897 500 943 b 344 844 390 943 344 897 b 446 743 344 789 390 743 z m 33 -162 b 351 -285 86 -211 199 -283 b 785 97 643 -283 785 -133 l 785 513 l 868 513 l 868 694 l 538 694 l 510 651 b 363 708 482 679 424 708 b 14 351 133 708 14 567 b 347 4 14 176 108 4 b 510 81 436 4 490 56 l 510 33 b 349 -97 510 -25 474 -97 b 107 -8 243 -97 139 -36 z m 310 354 b 408 528 310 460 350 528 b 508 361 461 528 508 456 b 410 183 514 251 464 183 b 310 354 349 183 310 271 z "},"h":{"ha":918,"x_min":0,"x_max":0,"o":"m 471 182 l 371 182 l 371 378 b 458 507 371 438 388 507 b 540 378 540 507 540 425 l 540 0 l 897 0 l 897 182 l 832 182 l 832 414 b 589 719 832 560 804 719 b 371 608 488 719 386 633 l 371 1042 l 35 1042 l 35 861 l 93 861 l 93 182 l 35 182 l 35 0 l 471 0 z "},"ħ":{"ha":918,"x_min":0,"x_max":0,"o":"m 832 182 l 832 414 b 589 719 832 560 804 719 b 371 608 488 719 386 633 l 371 721 l 447 721 l 447 836 l 371 836 l 371 1042 l 35 1042 l 35 861 l 93 861 l 93 836 l -22 836 l -22 721 l 93 721 l 93 182 l 35 182 l 35 0 l 471 0 l 471 182 l 371 182 l 371 378 b 458 507 371 438 388 507 b 540 378 540 507 540 425 l 540 0 l 897 0 l 897 182 z "},"i":{"ha":458,"x_min":0,"x_max":0,"o":"m 74 897 b 224 757 74 831 136 757 b 376 897 322 757 376 821 b 224 1039 376 961 319 1039 b 74 897 126 1039 74 961 z m 424 182 l 357 182 l 357 694 l 35 694 l 35 514 l 93 514 l 93 182 l 35 182 l 35 0 l 424 0 z "},"ı":{"ha":458,"x_min":0,"x_max":0,"o":"m 424 182 l 357 182 l 357 694 l 35 694 l 35 514 l 93 514 l 93 182 l 35 182 l 35 0 l 424 0 z "},"í":{"ha":458,"x_min":0,"x_max":0,"o":"m 439 971 l 228 999 l 19 839 l 175 811 z m 424 182 l 357 182 l 357 694 l 35 694 l 35 514 l 93 514 l 93 182 l 35 182 l 35 0 l 424 0 z "},"î":{"ha":458,"x_min":0,"x_max":0,"o":"m 229 885 l 319 763 l 481 811 l 293 971 l 164 971 l -24 811 l 138 763 z m 357 694 l 35 694 l 35 514 l 93 514 l 93 182 l 35 182 l 35 0 l 424 0 l 424 182 l 357 182 z "},"ï":{"ha":458,"x_min":0,"x_max":0,"o":"m 69 743 b 169 844 124 743 169 789 b 69 943 169 897 124 943 b -31 844 14 943 -31 897 b 69 743 -31 789 14 743 z m 389 743 b 488 844 443 743 488 789 b 389 943 488 897 443 943 b 288 844 333 943 288 897 b 389 743 288 789 333 743 z m 424 182 l 357 182 l 357 694 l 35 694 l 35 514 l 93 514 l 93 182 l 35 182 l 35 0 l 424 0 z "},"ì":{"ha":458,"x_min":0,"x_max":0,"o":"m 19 971 l 283 811 l 439 839 l 231 999 z m 424 182 l 357 182 l 357 694 l 35 694 l 35 514 l 93 514 l 93 182 l 35 182 l 35 0 l 424 0 z "},"ī":{"ha":458,"x_min":0,"x_max":0,"o":"m -83 942 l -83 826 l 542 826 l 542 942 z m 424 182 l 357 182 l 357 694 l 35 694 l 35 514 l 93 514 l 93 182 l 35 182 l 35 0 l 424 0 z "},"į":{"ha":458,"x_min":0,"x_max":0,"o":"m 231 743 b 329 844 285 743 329 789 b 231 943 329 897 285 943 b 129 844 175 943 129 897 b 231 743 129 789 175 743 z m 610 -137 b 413 -85 463 -194 413 -129 b 481 17 413 -43 453 -8 l 424 26 l 424 182 l 357 182 l 357 694 l 35 694 l 35 514 l 93 514 l 93 182 l 35 182 l 35 0 l 367 0 b 297 -150 335 -29 297 -76 b 682 -239 297 -287 483 -349 z "},"j":{"ha":500,"x_min":0,"x_max":0,"o":"m 158 897 b 308 757 158 831 221 757 b 461 897 407 757 461 821 b 308 1039 461 961 404 1039 b 158 897 211 1039 158 961 z m 178 97 b 19 -104 178 31 181 -104 l 19 -290 b 442 97 389 -290 442 -75 l 442 694 l 119 694 l 119 514 l 178 514 z "},"k":{"ha":908,"x_min":0,"x_max":0,"o":"m 424 0 l 424 182 l 372 182 l 372 299 l 421 332 l 526 182 l 468 182 l 468 0 l 879 0 l 879 182 l 810 182 l 622 450 l 717 510 l 824 510 l 824 693 l 435 693 l 435 510 l 535 510 l 374 414 l 374 1042 l 53 1042 l 53 860 l 110 860 l 110 181 l 53 181 l 53 0 z "},"ķ":{"ha":908,"x_min":0,"x_max":0,"o":"m 424 0 l 424 182 l 372 182 l 372 299 l 421 332 l 526 182 l 468 182 l 468 0 l 879 0 l 879 182 l 810 182 l 622 450 l 717 510 l 824 510 l 824 693 l 435 693 l 435 510 l 535 510 l 374 414 l 374 1042 l 53 1042 l 53 860 l 110 860 l 110 181 l 53 181 l 53 0 z m 433 -461 b 578 -157 525 -381 582 -272 l 415 -114 b 331 -403 425 -249 394 -324 z "},"l":{"ha":461,"x_min":0,"x_max":0,"o":"m 440 182 l 358 182 l 358 1042 l 36 1042 l 36 863 l 94 863 l 94 182 l 35 182 l 35 0 l 440 0 z "},"ĺ":{"ha":461,"x_min":0,"x_max":0,"o":"m 440 1318 l 229 1346 l 21 1186 l 176 1158 z m 440 182 l 358 182 l 358 1042 l 36 1042 l 36 863 l 94 863 l 94 182 l 35 182 l 35 0 l 440 0 z "},"ľ":{"ha":657,"x_min":0,"x_max":0,"o":"m 550 1096 b 414 960 475 1096 414 1035 b 499 835 414 904 449 856 b 472 697 532 811 507 733 l 532 660 b 685 960 575 693 685 817 b 550 1096 685 1035 624 1096 z m 358 1042 l 36 1042 l 36 863 l 94 863 l 94 182 l 35 182 l 35 0 l 440 0 l 440 182 l 358 182 z "},"ļ":{"ha":461,"x_min":0,"x_max":0,"o":"m 440 182 l 358 182 l 358 1042 l 36 1042 l 36 863 l 94 863 l 94 182 l 35 182 l 35 0 l 440 0 z m 210 -461 b 354 -157 301 -381 358 -272 l 192 -114 b 107 -403 201 -249 171 -324 z "},"ł":{"ha":461,"x_min":0,"x_max":0,"o":"m 451 490 l 451 628 l 358 607 l 358 1042 l 36 1042 l 36 863 l 94 863 l 94 547 l 22 531 l 22 393 l 94 410 l 94 182 l 35 182 l 35 0 l 440 0 l 440 182 l 358 182 l 358 469 z "},"m":{"ha":1261,"x_min":0,"x_max":0,"o":"m 447 182 l 364 182 l 364 429 b 426 513 364 486 382 513 b 485 354 482 513 485 467 l 485 0 l 844 0 l 844 186 l 761 186 l 761 411 b 835 513 761 471 775 513 b 888 340 900 513 888 407 l 888 0 l 1240 0 l 1240 188 l 1172 188 l 1172 379 b 913 713 1172 549 1138 713 b 708 613 817 713 751 661 b 501 713 686 646 642 713 b 328 611 414 713 350 638 l 297 693 l 35 693 l 35 510 l 93 510 l 93 182 l 35 182 l 35 0 l 447 0 z "},"n":{"ha":899,"x_min":0,"x_max":0,"o":"m 463 182 l 363 182 l 363 379 b 450 508 363 439 379 508 b 528 379 532 508 528 426 l 528 0 l 878 0 l 878 182 l 813 182 l 813 414 b 561 719 813 560 776 719 b 363 608 474 719 410 674 l 331 694 l 35 694 l 35 514 l 93 514 l 93 182 l 35 182 l 35 0 l 463 0 z "},"ń":{"ha":899,"x_min":0,"x_max":0,"o":"m 660 971 l 449 999 l 240 839 l 396 811 z m 463 182 l 363 182 l 363 379 b 450 508 363 439 379 508 b 528 379 532 508 528 426 l 528 0 l 878 0 l 878 182 l 813 182 l 813 414 b 561 719 813 560 776 719 b 363 608 474 719 410 674 l 331 694 l 35 694 l 35 514 l 93 514 l 93 182 l 35 182 l 35 0 l 463 0 z "},"ň":{"ha":899,"x_min":0,"x_max":0,"o":"m 514 763 l 701 922 l 540 971 l 450 849 l 358 971 l 197 922 l 385 763 z m 813 182 l 813 414 b 561 719 813 560 776 719 b 363 608 474 719 410 674 l 331 694 l 35 694 l 35 514 l 93 514 l 93 182 l 35 182 l 35 0 l 463 0 l 463 182 l 363 182 l 363 379 b 450 508 363 439 379 508 b 528 379 532 508 528 426 l 528 0 l 878 0 l 878 182 z "},"ņ":{"ha":899,"x_min":0,"x_max":0,"o":"m 463 182 l 363 182 l 363 379 b 450 508 363 439 379 508 b 528 379 532 508 528 426 l 528 0 l 878 0 l 878 182 l 813 182 l 813 414 b 561 719 813 560 776 719 b 363 608 474 719 410 674 l 331 694 l 35 694 l 35 514 l 93 514 l 93 182 l 35 182 l 35 0 l 463 0 z m 429 -461 b 574 -157 521 -381 578 -272 l 411 -114 b 326 -403 421 -249 390 -324 z "},"ŋ":{"ha":833,"x_min":0,"x_max":0,"o":"m 561 719 b 363 608 474 719 410 674 l 331 694 l 35 694 l 35 514 l 93 514 l 93 182 l 35 182 l 35 0 l 463 0 l 463 182 l 363 182 l 363 379 b 450 508 363 439 379 508 b 528 379 532 508 528 426 l 528 14 b 413 -186 528 -135 482 -186 b 350 -174 388 -186 368 -182 l 351 -357 b 424 -372 372 -365 397 -372 b 813 14 710 -372 813 -232 l 813 414 b 561 719 813 560 776 719 z "},"ñ":{"ha":899,"x_min":0,"x_max":0,"o":"m 543 769 b 690 906 618 772 667 826 l 593 965 b 528 890 589 954 557 893 b 354 982 474 885 449 986 b 208 846 281 979 232 925 l 307 786 b 371 861 308 797 342 858 b 543 769 424 867 451 767 z m 463 182 l 363 182 l 363 379 b 450 508 363 439 379 508 b 528 379 532 508 528 426 l 528 0 l 878 0 l 878 182 l 813 182 l 813 414 b 561 719 813 560 776 719 b 363 608 474 719 410 674 l 331 694 l 35 694 l 35 514 l 93 514 l 93 182 l 35 182 l 35 0 l 463 0 z "},"o":{"ha":797,"x_min":0,"x_max":0,"o":"m 403 -18 b 782 344 614 -18 785 114 b 396 711 778 576 615 708 b 15 350 204 711 17 582 b 403 -18 13 104 204 -18 z m 403 160 b 300 349 344 160 300 235 b 396 531 300 450 342 531 b 497 344 461 529 497 449 b 403 160 497 240 463 160 z "},"ó":{"ha":797,"x_min":0,"x_max":0,"o":"m 608 971 l 397 999 l 189 839 l 344 811 z m 403 -18 b 782 344 614 -18 785 114 b 396 711 778 576 615 708 b 15 350 204 711 17 582 b 403 -18 13 104 204 -18 z m 403 160 b 300 349 344 160 300 235 b 396 531 300 450 342 531 b 497 344 461 529 497 449 b 403 160 497 240 463 160 z "},"ô":{"ha":797,"x_min":0,"x_max":0,"o":"m 399 885 l 489 763 l 650 811 l 463 971 l 333 971 l 146 811 l 307 763 z m 782 344 b 396 711 778 576 615 708 b 15 350 204 711 17 582 b 403 -18 13 104 204 -18 b 782 344 614 -18 785 114 z m 403 160 b 300 349 344 160 300 235 b 396 531 300 450 342 531 b 497 344 461 529 497 449 b 403 160 497 240 463 160 z "},"ö":{"ha":797,"x_min":0,"x_max":0,"o":"m 239 743 b 339 844 293 743 339 789 b 239 943 339 897 293 943 b 139 844 183 943 139 897 b 239 743 139 789 183 743 z m 558 743 b 657 844 613 743 657 789 b 558 943 657 897 613 943 b 457 844 503 943 457 897 b 558 743 457 789 503 743 z m 403 -18 b 782 344 614 -18 785 114 b 396 711 778 576 615 708 b 15 350 204 711 17 582 b 403 -18 13 104 204 -18 z m 403 160 b 300 349 344 160 300 235 b 396 531 300 450 342 531 b 497 344 461 529 497 449 b 403 160 497 240 463 160 z "},"ò":{"ha":797,"x_min":0,"x_max":0,"o":"m 189 971 l 453 811 l 608 839 l 400 999 z m 403 -18 b 782 344 614 -18 785 114 b 396 711 778 576 615 708 b 15 350 204 711 17 582 b 403 -18 13 104 204 -18 z m 403 160 b 300 349 344 160 300 235 b 396 531 300 450 342 531 b 497 344 461 529 497 449 b 403 160 497 240 463 160 z "},"ő":{"ha":797,"x_min":0,"x_max":0,"o":"m 436 985 l 253 1013 l 100 839 l 200 811 z m 697 957 l 514 985 l 333 839 l 433 811 z m 403 -18 b 782 344 614 -18 785 114 b 396 711 778 576 615 708 b 15 350 204 711 17 582 b 403 -18 13 104 204 -18 z m 403 160 b 300 349 344 160 300 235 b 396 531 300 450 342 531 b 497 344 461 529 497 449 b 403 160 497 240 463 160 z "},"ō":{"ha":797,"x_min":0,"x_max":0,"o":"m 86 942 l 86 826 l 711 826 l 711 942 z m 403 -18 b 782 344 614 -18 785 114 b 396 711 778 576 615 708 b 15 350 204 711 17 582 b 403 -18 13 104 204 -18 z m 403 160 b 300 349 344 160 300 235 b 396 531 300 450 342 531 b 497 344 461 529 497 449 b 403 160 497 240 463 160 z "},"ø":{"ha":797,"x_min":0,"x_max":0,"o":"m 782 344 b 656 625 779 468 733 563 l 714 711 l 611 749 l 564 679 b 396 711 514 700 457 710 b 15 350 204 711 17 582 b 147 63 14 219 68 124 l 89 -25 l 193 -62 l 242 11 b 403 -18 293 -8 347 -18 b 782 344 614 -18 785 114 z m 300 349 b 396 531 300 450 342 531 b 449 507 417 531 433 522 l 304 293 b 300 349 301 311 300 329 z m 403 160 b 356 179 386 160 369 167 l 496 386 b 497 344 497 372 497 358 b 403 160 497 240 463 160 z "},"õ":{"ha":797,"x_min":0,"x_max":0,"o":"m 492 769 b 639 906 567 772 615 826 l 542 965 b 476 890 538 954 506 893 b 303 982 422 885 397 986 b 157 846 229 979 181 925 l 256 786 b 319 861 257 797 290 858 b 492 769 372 867 400 767 z m 403 -18 b 782 344 614 -18 785 114 b 396 711 778 576 615 708 b 15 350 204 711 17 582 b 403 -18 13 104 204 -18 z m 403 160 b 300 349 344 160 300 235 b 396 531 300 450 342 531 b 497 344 461 529 497 449 b 403 160 497 240 463 160 z "},"œ":{"ha":1278,"x_min":0,"x_max":0,"o":"m 1236 96 l 1119 231 b 925 164 1044 168 972 164 b 782 278 808 164 790 240 l 1219 278 b 1217 513 1249 357 1233 464 b 885 714 1176 629 1050 714 b 642 636 790 714 706 688 b 396 711 576 685 492 710 b 15 350 204 711 17 582 b 403 -18 13 104 204 -18 b 643 53 493 -18 578 7 b 878 -25 711 -1 797 -25 b 1236 96 1022 -25 1133 7 z m 403 160 b 300 349 344 160 300 235 b 396 531 300 450 342 531 b 497 344 461 529 497 449 b 403 160 497 240 463 160 z m 893 526 b 996 415 982 526 994 468 l 786 415 b 893 526 789 450 808 526 z "},"p":{"ha":886,"x_min":0,"x_max":0,"o":"m 35 -283 l 450 -283 l 450 -101 l 375 -101 l 375 39 b 556 -15 385 31 440 -15 b 872 342 735 -15 872 121 b 544 706 872 539 761 706 b 376 646 461 706 403 665 l 353 694 l 35 694 l 35 510 l 93 510 l 93 -101 l 35 -101 z m 574 339 b 475 165 574 233 533 165 b 375 332 422 165 375 238 b 474 510 369 442 419 510 b 574 339 535 510 574 422 z "},"þ":{"ha":911,"x_min":0,"x_max":0,"o":"m 449 -347 l 449 -167 l 379 -167 l 379 47 b 560 -15 418 14 454 -15 b 881 342 756 -15 876 128 b 561 706 885 528 772 706 b 379 640 493 706 410 676 l 379 1042 l 43 1042 l 43 860 l 101 860 l 101 -167 l 43 -167 l 43 -347 z m 575 339 b 476 165 575 233 535 165 b 376 332 424 165 376 238 b 475 510 371 442 421 510 b 575 339 536 510 575 422 z "},"q":{"ha":917,"x_min":0,"x_max":0,"o":"m 442 -319 l 882 -319 l 882 -133 l 814 -133 l 814 514 l 882 514 l 882 694 l 558 694 l 532 653 b 367 708 518 671 457 708 b 35 351 182 708 35 592 b 354 -12 35 128 176 -12 b 532 46 436 -12 500 19 l 532 -137 l 442 -137 z m 532 357 b 433 183 532 251 492 183 b 333 350 381 183 333 256 b 432 528 328 460 378 528 b 532 357 493 528 532 440 z "},"r":{"ha":575,"x_min":0,"x_max":0,"o":"m 428 182 l 358 182 l 358 325 b 554 479 358 447 429 479 l 554 719 b 339 606 411 719 375 672 l 297 694 l 36 694 l 36 514 l 96 514 l 96 182 l 35 182 l 35 0 l 428 0 z "},"ŕ":{"ha":575,"x_min":0,"x_max":0,"o":"m 497 971 l 286 999 l 78 839 l 233 811 z m 428 182 l 358 182 l 358 325 b 554 479 358 447 429 479 l 554 719 b 339 606 411 719 375 672 l 297 694 l 36 694 l 36 514 l 96 514 l 96 182 l 35 182 l 35 0 l 428 0 z "},"ř":{"ha":575,"x_min":0,"x_max":0,"o":"m 351 763 l 539 922 l 378 971 l 288 849 l 196 971 l 35 922 l 222 763 z m 554 479 l 554 719 b 339 606 411 719 375 672 l 297 694 l 36 694 l 36 514 l 96 514 l 96 182 l 35 182 l 35 0 l 428 0 l 428 182 l 358 182 l 358 325 b 554 479 358 447 429 479 z "},"ŗ":{"ha":575,"x_min":0,"x_max":0,"o":"m 428 182 l 358 182 l 358 325 b 554 479 358 447 429 479 l 554 719 b 339 606 411 719 375 672 l 297 694 l 36 694 l 36 514 l 96 514 l 96 182 l 35 182 l 35 0 l 428 0 z m 267 -461 b 411 -157 358 -381 415 -272 l 249 -114 b 164 -403 258 -249 228 -324 z "},"s":{"ha":706,"x_min":0,"x_max":0,"o":"m 194 0 l 207 85 b 419 -17 240 32 319 -17 b 678 192 554 -17 678 61 b 454 414 678 338 560 378 b 283 500 365 444 283 461 b 338 550 283 535 308 550 b 479 444 407 550 479 503 l 660 444 l 660 694 l 489 694 l 478 603 b 271 711 449 663 365 711 b 26 510 172 711 26 651 b 211 288 26 379 117 321 b 415 204 311 253 415 246 b 354 157 415 165 382 157 b 207 250 313 157 207 176 l 21 250 l 21 0 z "},"ś":{"ha":706,"x_min":0,"x_max":0,"o":"m 563 971 l 351 999 l 143 839 l 299 811 z m 194 0 l 207 85 b 419 -17 240 32 319 -17 b 678 192 554 -17 678 61 b 454 414 678 338 560 378 b 283 500 365 444 283 461 b 338 550 283 535 308 550 b 479 444 407 550 479 503 l 660 444 l 660 694 l 489 694 l 478 603 b 271 711 449 663 365 711 b 26 510 172 711 26 651 b 211 288 26 379 117 321 b 415 204 311 253 415 246 b 354 157 415 165 382 157 b 207 250 313 157 207 176 l 21 250 l 21 0 z "},"š":{"ha":706,"x_min":0,"x_max":0,"o":"m 417 763 l 604 922 l 443 971 l 353 849 l 261 971 l 100 922 l 288 763 z m 454 414 b 283 500 365 444 283 461 b 338 550 283 535 308 550 b 479 444 407 550 479 503 l 660 444 l 660 694 l 489 694 l 478 603 b 271 711 449 663 365 711 b 26 510 172 711 26 651 b 211 288 26 379 117 321 b 415 204 311 253 415 246 b 354 157 415 165 382 157 b 207 250 313 157 207 176 l 21 250 l 21 0 l 194 0 l 207 85 b 419 -17 240 32 319 -17 b 678 192 554 -17 678 61 b 454 414 678 338 560 378 z "},"ş":{"ha":706,"x_min":0,"x_max":0,"o":"m 419 -17 b 678 192 554 -17 678 61 b 454 414 678 338 560 378 b 283 500 365 444 283 461 b 338 550 283 535 308 550 b 479 444 407 550 479 503 l 660 444 l 660 694 l 489 694 l 478 603 b 271 711 449 663 365 711 b 26 510 172 711 26 651 b 211 288 26 379 117 321 b 415 204 311 253 415 246 b 354 157 415 165 382 157 b 207 250 313 157 207 176 l 21 250 l 21 0 l 194 0 l 207 85 b 299 8 225 56 257 28 l 286 -143 l 376 -160 b 432 -122 379 -144 404 -122 b 485 -179 468 -122 485 -144 b 413 -236 485 -215 465 -233 b 318 -207 379 -237 338 -228 l 250 -272 b 418 -335 279 -304 339 -335 b 608 -172 508 -335 608 -281 b 458 -31 608 -78 536 -25 b 367 -78 403 -35 374 -65 l 371 -12 b 419 -17 386 -15 403 -17 z "},"ș":{"ha":706,"x_min":0,"x_max":0,"o":"m 194 0 l 207 85 b 419 -17 240 32 319 -17 b 678 192 554 -17 678 61 b 454 414 678 338 560 378 b 283 500 365 444 283 461 b 338 550 283 535 308 550 b 479 444 407 550 479 503 l 660 444 l 660 694 l 489 694 l 478 603 b 271 711 449 663 365 711 b 26 510 172 711 26 651 b 211 288 26 379 117 321 b 415 204 311 253 415 246 b 354 157 415 165 382 157 b 207 250 313 157 207 176 l 21 250 l 21 0 z m 332 -461 b 476 -157 424 -381 481 -272 l 314 -114 b 229 -403 324 -249 293 -324 z "},"ß":{"ha":997,"x_min":0,"x_max":0,"o":"m 776 532 b 907 739 849 567 907 628 b 547 1050 907 931 753 1050 b 122 646 307 1050 122 940 l 122 185 l 35 185 l 35 0 l 410 0 l 410 678 b 551 839 410 815 496 839 b 675 743 619 839 675 793 b 543 600 675 683 635 619 l 543 464 b 689 306 635 458 689 393 b 568 169 689 242 678 169 b 476 192 518 169 481 189 l 476 -6 b 618 -29 478 -7 543 -29 b 963 276 796 -29 963 32 b 776 532 963 413 875 490 z "},"t":{"ha":504,"x_min":0,"x_max":0,"o":"m 21 514 l 96 514 l 96 267 b 315 -25 100 89 107 -25 b 483 1 347 -25 442 -15 l 483 179 b 396 156 457 168 414 156 b 351 267 342 156 351 219 l 351 514 l 483 514 l 483 694 l 351 694 l 351 904 l 96 822 l 96 694 l 21 694 z "},"ŧ":{"ha":504,"x_min":0,"x_max":0,"o":"m 483 514 l 483 694 l 351 694 l 351 904 l 96 822 l 96 694 l 21 694 l 21 514 l 96 514 l 96 453 l 22 453 l 22 333 l 96 333 l 96 267 b 315 -25 100 89 107 -25 b 483 1 347 -25 442 -15 l 483 179 b 396 156 457 168 414 156 b 351 267 342 156 351 219 l 351 333 l 483 333 l 483 453 l 351 453 l 351 514 z "},"ť":{"ha":703,"x_min":0,"x_max":0,"o":"m 596 1096 b 460 960 521 1096 460 1035 b 544 835 460 904 494 856 b 518 697 578 811 553 733 l 578 660 b 731 960 621 693 731 817 b 596 1096 731 1035 669 1096 z m 351 904 l 96 822 l 96 694 l 21 694 l 21 514 l 96 514 l 96 267 b 315 -25 100 89 107 -25 b 483 1 347 -25 442 -15 l 483 179 b 396 156 457 168 414 156 b 351 267 342 156 351 219 l 351 514 l 483 514 l 483 694 l 351 694 z "},"ţ":{"ha":504,"x_min":0,"x_max":0,"o":"m 397 -44 b 306 -92 342 -49 313 -79 l 310 -25 l 315 -25 b 483 1 347 -25 442 -15 l 483 179 b 396 156 457 168 414 156 b 351 267 342 156 351 219 l 351 514 l 483 514 l 483 694 l 351 694 l 351 904 l 96 822 l 96 694 l 21 694 l 21 514 l 96 514 l 96 267 b 238 -18 100 115 106 10 l 225 -157 l 315 -174 b 371 -136 318 -158 343 -136 b 424 -193 407 -136 424 -158 b 351 -250 424 -229 404 -247 b 257 -221 318 -251 276 -242 l 189 -286 b 357 -349 218 -318 278 -349 b 547 -186 447 -349 547 -294 b 397 -44 547 -92 475 -39 z "},"ț":{"ha":504,"x_min":0,"x_max":0,"o":"m 21 514 l 96 514 l 96 267 b 315 -25 100 89 107 -25 b 483 1 347 -25 442 -15 l 483 179 b 396 156 457 168 414 156 b 351 267 342 156 351 219 l 351 514 l 483 514 l 483 694 l 351 694 l 351 904 l 96 822 l 96 694 l 21 694 z m 271 -475 b 415 -171 363 -394 419 -286 l 253 -128 b 168 -417 263 -262 232 -337 z "},"u":{"ha":876,"x_min":0,"x_max":0,"o":"m 21 511 l 79 511 l 79 319 b 358 -19 79 89 149 -19 b 556 88 476 -19 525 53 l 593 0 l 856 0 l 856 185 l 788 185 l 788 694 l 428 694 l 428 511 l 519 511 l 519 290 b 432 185 519 228 481 185 b 357 360 375 185 357 240 l 357 694 l 21 694 z "},"ú":{"ha":876,"x_min":0,"x_max":0,"o":"m 649 971 l 438 999 l 229 839 l 385 811 z m 21 511 l 79 511 l 79 319 b 358 -19 79 89 149 -19 b 556 88 476 -19 525 53 l 593 0 l 856 0 l 856 185 l 788 185 l 788 694 l 428 694 l 428 511 l 519 511 l 519 290 b 432 185 519 228 481 185 b 357 360 375 185 357 240 l 357 694 l 21 694 z "},"û":{"ha":876,"x_min":0,"x_max":0,"o":"m 439 885 l 529 763 l 690 811 l 503 971 l 374 971 l 186 811 l 347 763 z m 788 185 l 788 694 l 428 694 l 428 511 l 519 511 l 519 290 b 432 185 519 228 481 185 b 357 360 375 185 357 240 l 357 694 l 21 694 l 21 511 l 79 511 l 79 319 b 358 -19 79 89 149 -19 b 556 88 476 -19 525 53 l 593 0 l 856 0 l 856 185 z "},"ü":{"ha":876,"x_min":0,"x_max":0,"o":"m 279 743 b 379 844 333 743 379 789 b 279 943 379 897 333 943 b 179 844 224 943 179 897 b 279 743 179 789 224 743 z m 599 743 b 697 844 653 743 697 789 b 599 943 697 897 653 943 b 497 844 543 943 497 897 b 599 743 497 789 543 743 z m 21 511 l 79 511 l 79 319 b 358 -19 79 89 149 -19 b 556 88 476 -19 525 53 l 593 0 l 856 0 l 856 185 l 788 185 l 788 694 l 428 694 l 428 511 l 519 511 l 519 290 b 432 185 519 228 481 185 b 357 360 375 185 357 240 l 357 694 l 21 694 z "},"ù":{"ha":876,"x_min":0,"x_max":0,"o":"m 229 971 l 493 811 l 649 839 l 440 999 z m 21 511 l 79 511 l 79 319 b 358 -19 79 89 149 -19 b 556 88 476 -19 525 53 l 593 0 l 856 0 l 856 185 l 788 185 l 788 694 l 428 694 l 428 511 l 519 511 l 519 290 b 432 185 519 228 481 185 b 357 360 375 185 357 240 l 357 694 l 21 694 z "},"ű":{"ha":876,"x_min":0,"x_max":0,"o":"m 476 985 l 293 1013 l 140 839 l 240 811 z m 738 957 l 554 985 l 374 839 l 474 811 z m 21 511 l 79 511 l 79 319 b 358 -19 79 89 149 -19 b 556 88 476 -19 525 53 l 593 0 l 856 0 l 856 185 l 788 185 l 788 694 l 428 694 l 428 511 l 519 511 l 519 290 b 432 185 519 228 481 185 b 357 360 375 185 357 240 l 357 694 l 21 694 z "},"ū":{"ha":876,"x_min":0,"x_max":0,"o":"m 126 942 l 126 826 l 751 826 l 751 942 z m 21 511 l 79 511 l 79 319 b 358 -19 79 89 149 -19 b 556 88 476 -19 525 53 l 593 0 l 856 0 l 856 185 l 788 185 l 788 694 l 428 694 l 428 511 l 519 511 l 519 290 b 432 185 519 228 481 185 b 357 360 375 185 357 240 l 357 694 l 21 694 z "},"ų":{"ha":876,"x_min":0,"x_max":0,"o":"m 986 -137 b 789 -85 839 -194 789 -129 b 839 0 789 -51 814 -24 l 856 0 l 856 15 l 857 17 l 856 17 l 856 185 l 788 185 l 788 694 l 428 694 l 428 511 l 519 511 l 519 290 b 432 185 519 228 481 185 b 357 360 375 185 357 240 l 357 694 l 21 694 l 21 511 l 79 511 l 79 319 b 358 -19 79 89 149 -19 b 556 88 476 -19 525 53 l 593 0 l 743 0 b 674 -150 711 -29 674 -76 b 1058 -239 674 -287 860 -349 z "},"ů":{"ha":876,"x_min":0,"x_max":0,"o":"m 439 736 b 581 878 517 736 581 800 b 439 1019 581 956 517 1019 b 297 878 361 1019 297 956 b 439 736 297 800 361 736 z m 439 826 b 388 878 411 826 388 850 b 439 929 388 906 411 929 b 490 878 467 929 490 906 b 439 826 490 850 467 826 z m 21 511 l 79 511 l 79 319 b 358 -19 79 89 149 -19 b 556 88 476 -19 525 53 l 593 0 l 856 0 l 856 185 l 788 185 l 788 694 l 428 694 l 428 511 l 519 511 l 519 290 b 432 185 519 228 481 185 b 357 360 375 185 357 240 l 357 694 l 21 694 z "},"v":{"ha":851,"x_min":0,"x_max":0,"o":"m 453 225 b 417 371 450 254 435 318 l 353 518 l 422 518 l 422 694 l 0 694 l 0 518 l 65 518 l 324 0 l 539 0 l 779 518 l 851 518 l 851 694 l 493 694 l 493 518 l 567 518 l 500 378 b 458 225 476 324 460 254 z "},"w":{"ha":1211,"x_min":0,"x_max":0,"o":"m 392 213 b 357 413 389 253 376 346 l 326 514 l 374 514 l 374 694 l 0 694 l 0 514 l 60 514 l 217 0 l 503 0 l 603 314 l 699 0 l 992 0 l 1154 514 l 1211 514 l 1211 694 l 872 694 l 872 514 l 929 514 l 906 432 b 868 213 885 358 872 257 l 865 213 b 806 514 860 261 839 407 l 753 694 l 496 694 l 451 539 b 394 213 410 401 399 269 z "},"ẃ":{"ha":1211,"x_min":0,"x_max":0,"o":"m 815 971 l 604 999 l 396 839 l 551 811 z m 392 213 b 357 413 389 253 376 346 l 326 514 l 374 514 l 374 694 l 0 694 l 0 514 l 60 514 l 217 0 l 503 0 l 603 314 l 699 0 l 992 0 l 1154 514 l 1211 514 l 1211 694 l 872 694 l 872 514 l 929 514 l 906 432 b 868 213 885 358 872 257 l 865 213 b 806 514 860 261 839 407 l 753 694 l 496 694 l 451 539 b 394 213 410 401 399 269 z "},"ŵ":{"ha":1211,"x_min":0,"x_max":0,"o":"m 606 885 l 696 763 l 857 811 l 669 971 l 540 971 l 353 811 l 514 763 z m 872 694 l 872 514 l 929 514 l 906 432 b 868 213 885 358 872 257 l 865 213 b 806 514 860 261 839 407 l 753 694 l 496 694 l 451 539 b 394 213 410 401 399 269 l 392 213 b 357 413 389 253 376 346 l 326 514 l 374 514 l 374 694 l 0 694 l 0 514 l 60 514 l 217 0 l 503 0 l 603 314 l 699 0 l 992 0 l 1154 514 l 1211 514 l 1211 694 z "},"ẅ":{"ha":1211,"x_min":0,"x_max":0,"o":"m 446 743 b 546 844 500 743 546 789 b 446 943 546 897 500 943 b 346 844 390 943 346 897 b 446 743 346 789 390 743 z m 765 743 b 864 844 819 743 864 789 b 765 943 864 897 819 943 b 664 844 710 943 664 897 b 765 743 664 789 710 743 z m 392 213 b 357 413 389 253 376 346 l 326 514 l 374 514 l 374 694 l 0 694 l 0 514 l 60 514 l 217 0 l 503 0 l 603 314 l 699 0 l 992 0 l 1154 514 l 1211 514 l 1211 694 l 872 694 l 872 514 l 929 514 l 906 432 b 868 213 885 358 872 257 l 865 213 b 806 514 860 261 839 407 l 753 694 l 496 694 l 451 539 b 394 213 410 401 399 269 z "},"ẁ":{"ha":1211,"x_min":0,"x_max":0,"o":"m 396 971 l 660 811 l 815 839 l 607 999 z m 392 213 b 357 413 389 253 376 346 l 326 514 l 374 514 l 374 694 l 0 694 l 0 514 l 60 514 l 217 0 l 503 0 l 603 314 l 699 0 l 992 0 l 1154 514 l 1211 514 l 1211 694 l 872 694 l 872 514 l 929 514 l 906 432 b 868 213 885 358 872 257 l 865 213 b 806 514 860 261 839 407 l 753 694 l 496 694 l 451 539 b 394 213 410 401 399 269 z "},"x":{"ha":901,"x_min":0,"x_max":0,"o":"m 521 521 l 614 521 l 510 415 l 413 521 l 478 521 l 478 694 l 28 694 l 28 521 l 90 521 l 263 332 l 121 172 l 28 172 l 28 0 l 383 0 l 383 172 l 293 172 l 393 285 l 499 172 l 433 172 l 433 0 l 876 0 l 876 172 l 811 172 l 636 372 l 783 521 l 875 521 l 875 694 l 521 694 z "},"y":{"ha":806,"x_min":0,"x_max":0,"o":"m 440 301 l 350 518 l 415 518 l 415 694 l -12 694 l -12 517 l 44 517 l 315 3 l 296 -56 b 207 -129 282 -97 250 -137 b 126 -82 178 -124 150 -103 l 22 -246 b 190 -315 64 -282 118 -311 b 489 -119 392 -317 449 -206 l 753 522 l 819 522 l 819 694 l 467 694 l 467 518 l 531 518 z "},"ý":{"ha":806,"x_min":0,"x_max":0,"o":"m 613 971 l 401 999 l 193 839 l 349 811 z m 440 301 l 350 518 l 415 518 l 415 694 l -12 694 l -12 517 l 44 517 l 315 3 l 296 -56 b 207 -129 282 -97 250 -137 b 126 -82 178 -124 150 -103 l 22 -246 b 190 -315 64 -282 118 -311 b 489 -119 392 -317 449 -206 l 753 522 l 819 522 l 819 694 l 467 694 l 467 518 l 531 518 z "},"ŷ":{"ha":806,"x_min":0,"x_max":0,"o":"m 403 885 l 493 763 l 654 811 l 467 971 l 338 971 l 150 811 l 311 763 z m 467 694 l 467 518 l 531 518 l 440 301 l 350 518 l 415 518 l 415 694 l -12 694 l -12 517 l 44 517 l 315 3 l 296 -56 b 207 -129 282 -97 250 -137 b 126 -82 178 -124 150 -103 l 22 -246 b 190 -315 64 -282 118 -311 b 489 -119 392 -317 449 -206 l 753 522 l 819 522 l 819 694 z "},"ÿ":{"ha":806,"x_min":0,"x_max":0,"o":"m 243 743 b 343 844 297 743 343 789 b 243 943 343 897 297 943 b 143 844 188 943 143 897 b 243 743 143 789 188 743 z m 563 743 b 661 844 617 743 661 789 b 563 943 661 897 617 943 b 461 844 507 943 461 897 b 563 743 461 789 507 743 z m 440 301 l 350 518 l 415 518 l 415 694 l -12 694 l -12 517 l 44 517 l 315 3 l 296 -56 b 207 -129 282 -97 250 -137 b 126 -82 178 -124 150 -103 l 22 -246 b 190 -315 64 -282 118 -311 b 489 -119 392 -317 449 -206 l 753 522 l 819 522 l 819 694 l 467 694 l 467 518 l 531 518 z "},"ỳ":{"ha":806,"x_min":0,"x_max":0,"o":"m 193 971 l 457 811 l 613 839 l 404 999 z m 440 301 l 350 518 l 415 518 l 415 694 l -12 694 l -12 517 l 44 517 l 315 3 l 296 -56 b 207 -129 282 -97 250 -137 b 126 -82 178 -124 150 -103 l 22 -246 b 190 -315 64 -282 118 -311 b 489 -119 392 -317 449 -206 l 753 522 l 819 522 l 819 694 l 467 694 l 467 518 l 531 518 z "},"z":{"ha":768,"x_min":0,"x_max":0,"o":"m 215 417 l 215 515 l 369 515 l 35 182 l 35 0 l 733 0 l 733 276 l 538 276 l 538 182 l 392 182 l 722 515 l 722 694 l 35 694 l 35 417 z "},"ź":{"ha":768,"x_min":0,"x_max":0,"o":"m 594 971 l 383 999 l 175 839 l 331 811 z m 215 417 l 215 515 l 369 515 l 35 182 l 35 0 l 733 0 l 733 276 l 538 276 l 538 182 l 392 182 l 722 515 l 722 694 l 35 694 l 35 417 z "},"ž":{"ha":768,"x_min":0,"x_max":0,"o":"m 449 763 l 636 922 l 475 971 l 385 849 l 293 971 l 132 922 l 319 763 z m 538 276 l 538 182 l 392 182 l 722 515 l 722 694 l 35 694 l 35 417 l 215 417 l 215 515 l 369 515 l 35 182 l 35 0 l 733 0 l 733 276 z "},"ż":{"ha":768,"x_min":0,"x_max":0,"o":"m 386 743 b 485 844 440 743 485 789 b 386 943 485 897 440 943 b 285 844 331 943 285 897 b 386 743 285 789 331 743 z m 215 417 l 215 515 l 369 515 l 35 182 l 35 0 l 733 0 l 733 276 l 538 276 l 538 182 l 392 182 l 722 515 l 722 694 l 35 694 l 35 417 z "},".":{"ha":358,"x_min":0,"x_max":0,"o":"m 21 144 b 178 -6 21 71 86 -6 b 338 144 282 -6 338 61 b 178 303 338 215 279 303 b 21 144 76 303 21 215 z "},",":{"ha":378,"x_min":0,"x_max":0,"o":"m 151 -269 b 376 206 293 -143 382 26 l 124 272 b -8 -179 138 63 90 -56 z "},":":{"ha":353,"x_min":0,"x_max":0,"o":"m 21 558 b 175 411 21 486 89 411 b 332 558 274 411 332 476 b 175 714 332 628 275 714 b 21 558 75 714 21 628 z m 21 136 b 175 -11 21 64 85 -11 b 332 136 269 -11 332 54 b 175 292 332 206 275 292 b 21 136 75 292 21 206 z "},";":{"ha":419,"x_min":0,"x_max":0,"o":"m 82 535 b 239 385 82 461 151 385 b 399 535 339 385 399 451 b 239 693 399 606 340 693 b 82 535 138 693 82 606 z m 7 -179 b 139 272 106 -56 153 63 l 392 206 b 167 -269 397 26 308 -143 z "},"…":{"ha":1089,"x_min":0,"x_max":0,"o":"m 21 144 b 178 -6 21 71 86 -6 b 338 144 282 -6 338 61 b 178 303 338 215 279 303 b 21 144 76 303 21 215 z m 374 144 b 531 -6 374 71 439 -6 b 690 144 635 -6 690 61 b 531 303 690 215 632 303 b 374 144 429 303 374 215 z m 731 144 b 888 -6 731 71 796 -6 b 1047 144 992 -6 1047 61 b 888 303 1047 215 989 303 b 731 144 786 303 731 215 z "},"!":{"ha":428,"x_min":0,"x_max":0,"o":"m 119 357 l 303 357 l 376 707 l 376 971 l 44 971 l 44 707 z m 39 142 b 197 -1 39 69 107 -1 b 363 142 299 -1 363 64 b 197 289 363 221 296 289 b 39 142 97 289 39 211 z "},"¡":{"ha":428,"x_min":0,"x_max":0,"o":"m 197 971 b 39 828 107 971 39 900 b 197 681 39 758 97 681 b 363 828 296 681 363 749 b 197 971 363 906 299 971 z m 119 613 l 44 263 l 44 -1 l 376 -1 l 376 263 l 303 613 z "},"?":{"ha":722,"x_min":0,"x_max":0,"o":"m 153 663 b 333 776 200 718 274 776 b 436 711 382 776 436 764 b 215 435 436 635 215 563 l 217 324 l 474 324 l 474 400 b 694 708 474 483 694 528 b 364 993 694 896 549 993 b 3 814 225 993 100 926 z m 179 142 b 338 -1 179 69 247 -1 b 503 142 439 -1 503 64 b 338 289 503 221 436 289 b 179 142 238 289 179 211 z "},"¿":{"ha":722,"x_min":0,"x_max":0,"o":"m 543 638 b 385 781 543 710 475 781 b 219 638 283 781 219 715 b 385 490 219 558 286 490 b 543 638 485 490 543 568 z m 719 -35 b 358 -214 622 -147 497 -214 b 28 71 174 -214 28 -117 b 249 379 28 251 249 296 l 249 456 l 506 456 l 507 344 b 286 68 507 217 286 144 b 389 3 286 15 340 3 b 569 117 449 3 522 61 z "},"·":{"ha":358,"x_min":0,"x_max":0,"o":"m 21 461 b 178 311 21 388 86 311 b 338 461 282 311 338 378 b 178 619 338 532 279 619 b 21 461 76 619 21 532 z "},"•":{"ha":483,"x_min":0,"x_max":0,"o":"m 83 447 b 240 297 83 374 149 297 b 400 447 344 297 400 364 b 240 606 400 518 342 606 b 83 447 139 606 83 518 z "},"*":{"ha":574,"x_min":0,"x_max":0,"o":"m 524 547 l 399 681 l 567 736 l 510 872 l 353 794 l 375 971 l 204 971 l 222 799 l 64 872 l 7 736 l 171 679 l 50 549 l 172 446 l 288 604 l 397 450 z "},"#":{"ha":1042,"x_min":0,"x_max":0,"o":"m 97 601 l 264 601 l 224 443 l 21 443 l 21 254 l 175 254 l 111 1 l 294 -1 l 358 254 l 544 254 l 481 1 l 664 -1 l 728 254 l 944 254 l 944 443 l 776 443 l 817 601 l 1021 601 l 1021 790 l 864 790 l 929 1044 l 746 1044 l 681 790 l 494 790 l 560 1044 l 376 1044 l 311 790 l 97 790 z m 447 601 l 633 601 l 593 443 l 407 443 z "},"/":{"ha":728,"x_min":0,"x_max":0,"o":"m 204 -111 l 721 1044 l 524 1044 l 7 -108 z "},"\\":{"ha":728,"x_min":0,"x_max":0,"o":"m 721 -108 l 204 1044 l 7 1044 l 524 -111 z "},"(":{"ha":539,"x_min":0,"x_max":0,"o":"m 361 1132 b 35 433 246 1032 35 761 b 361 -290 35 117 211 -154 l 504 -142 b 290 433 422 -44 290 124 b 504 985 290 733 438 904 z "},")":{"ha":539,"x_min":0,"x_max":0,"o":"m 35 983 b 249 432 101 903 249 732 b 35 -143 249 122 117 -46 l 178 -292 b 504 432 328 -156 504 115 b 178 1131 504 760 293 1031 z "},"{":{"ha":436,"x_min":0,"x_max":0,"o":"m 436 1003 l 436 1188 b 146 851 258 1188 125 1072 b 42 508 168 619 140 524 l 42 332 b 146 -11 140 317 168 221 b 436 -347 125 -232 258 -347 l 436 -162 b 315 131 349 -162 290 -119 b 218 421 329 269 279 361 b 315 710 279 479 329 571 b 436 1003 290 960 349 1003 z "},"}":{"ha":436,"x_min":0,"x_max":0,"o":"m 290 851 b 0 1188 311 1072 178 1188 l 0 1003 b 121 710 88 1003 146 960 b 218 421 107 571 157 479 b 121 131 157 361 107 269 b 0 -162 146 -119 88 -162 l 0 -347 b 290 -11 178 -347 311 -232 b 394 332 268 221 296 317 l 394 508 b 290 851 296 524 268 619 z "},"[":{"ha":433,"x_min":0,"x_max":0,"o":"m 433 999 l 433 1174 l 42 1174 l 42 -279 l 433 -279 l 433 -104 l 213 -104 l 213 999 z "},"]":{"ha":433,"x_min":0,"x_max":0,"o":"m 392 1174 l 0 1174 l 0 999 l 221 999 l 221 -104 l 0 -104 l 0 -279 l 392 -279 z "},"-":{"ha":472,"x_min":0,"x_max":0,"o":"m 35 239 l 438 239 l 438 424 l 35 424 z "},"–":{"ha":621,"x_min":0,"x_max":0,"o":"m 44 239 l 568 239 l 568 424 l 44 424 z "},"—":{"ha":876,"x_min":0,"x_max":0,"o":"m 58 239 l 807 239 l 807 424 l 58 424 z "},"_":{"ha":971,"x_min":0,"x_max":0,"o":"m 35 -1 l 936 -1 l 936 114 l 35 114 z "},"‚":{"ha":418,"x_min":0,"x_max":0,"o":"m 151 -269 b 376 206 293 -143 382 26 l 124 272 b -8 -179 138 63 90 -56 z "},"„":{"ha":833,"x_min":0,"x_max":0,"o":"m 151 -269 b 376 206 293 -143 382 26 l 124 272 b -8 -179 138 63 90 -56 z m 496 -269 b 721 206 638 -143 726 26 l 468 272 b 336 -179 482 63 435 -56 z "},"“":{"ha":671,"x_min":0,"x_max":0,"o":"m 228 921 b 254 1058 194 944 219 1022 l 194 1096 b 42 796 151 1063 42 939 b 176 660 42 721 103 660 b 313 796 251 660 313 721 b 228 921 313 851 278 900 z m 544 921 b 571 1058 511 944 536 1022 l 511 1096 b 358 796 468 1063 358 939 b 493 660 358 721 419 660 b 629 796 568 660 629 721 b 544 921 629 851 594 900 z "},"”":{"ha":672,"x_min":0,"x_max":0,"o":"m 178 1096 b 42 960 103 1096 42 1035 b 126 835 42 904 76 856 b 100 697 160 811 135 733 l 160 660 b 313 960 203 693 313 817 b 178 1096 313 1035 251 1096 z m 496 1096 b 360 960 421 1096 360 1035 b 444 835 360 904 394 856 b 418 697 478 811 453 733 l 478 660 b 631 960 521 693 631 817 b 496 1096 631 1035 569 1096 z "},"‘":{"ha":354,"x_min":0,"x_max":0,"o":"m 228 921 b 254 1058 194 944 219 1022 l 194 1096 b 42 796 151 1063 42 939 b 176 660 42 721 103 660 b 313 796 251 660 313 721 b 228 921 313 851 278 900 z "},"’":{"ha":354,"x_min":0,"x_max":0,"o":"m 178 1096 b 42 960 103 1096 42 1035 b 126 835 42 904 76 856 b 100 697 160 811 135 733 l 160 660 b 313 960 203 693 313 817 b 178 1096 313 1035 251 1096 z "},"«":{"ha":792,"x_min":0,"x_max":0,"o":"m 433 639 l 224 639 l 28 319 l 224 0 l 433 0 l 238 319 z m 750 639 l 540 639 l 344 319 l 540 0 l 750 0 l 554 319 z "},"»":{"ha":797,"x_min":0,"x_max":0,"o":"m 238 639 l 28 639 l 224 319 l 28 0 l 238 0 l 433 319 z m 560 639 l 350 639 l 546 319 l 350 0 l 560 0 l 756 319 z "},"‹":{"ha":475,"x_min":0,"x_max":0,"o":"m 433 639 l 224 639 l 28 319 l 224 0 l 433 0 l 238 319 z "},"›":{"ha":475,"x_min":0,"x_max":0,"o":"m 238 639 l 28 639 l 224 319 l 28 0 l 238 0 l 433 319 z "},"\"":{"ha":700,"x_min":0,"x_max":0,"o":"m 49 974 l 100 558 l 274 558 l 315 974 z m 385 974 l 428 558 l 601 558 l 651 974 z "},"'":{"ha":379,"x_min":0,"x_max":0,"o":"m 50 974 l 101 558 l 275 558 l 325 974 z "}," ":{"ha":347,"x_min":0,"x_max":0,"o":""},"¢":{"ha":738,"x_min":0,"x_max":0,"o":"m 601 264 b 433 185 556 214 507 183 b 390 192 418 185 404 188 l 468 497 b 500 381 490 468 499 422 l 704 381 l 704 694 l 540 694 l 517 628 b 506 640 514 632 510 636 l 589 971 l 494 971 l 424 693 b 343 707 401 701 374 707 b 1 351 165 707 1 597 b 247 0 1 161 107 44 l 197 -199 l 292 -199 l 338 -17 b 383 -19 353 -18 368 -19 b 724 122 533 -19 658 51 z m 290 349 b 381 521 290 426 319 501 l 313 256 b 290 349 299 282 290 314 z "},"¤":{"ha":850,"x_min":0,"x_max":0,"o":"m 699 547 l 822 671 l 732 761 l 608 638 b 242 638 497 711 351 713 l 118 761 l 28 671 l 151 547 b 151 181 78 436 76 290 l 28 57 l 118 -33 l 242 90 b 608 90 353 17 499 15 l 732 -33 l 822 57 l 699 181 b 699 547 772 292 774 438 z m 536 253 b 314 253 476 192 375 193 b 314 475 253 313 254 414 b 536 475 374 536 475 535 b 536 253 597 415 596 314 z "},"$":{"ha":838,"x_min":0,"x_max":0,"o":"m 311 1078 l 311 961 b 57 689 196 953 57 874 b 508 293 57 378 508 396 b 407 225 508 236 447 225 b 239 358 354 228 239 247 l 21 358 l 21 24 l 224 24 l 239 107 b 311 56 263 86 286 69 l 311 -126 l 507 -126 l 507 17 b 817 286 650 19 817 83 b 349 701 817 596 349 565 b 431 772 349 749 396 772 b 585 618 518 772 585 715 l 799 618 l 799 943 l 596 943 l 585 865 b 507 933 567 896 539 918 l 507 1078 z "},"€":{"ha":943,"x_min":0,"x_max":0,"o":"m 588 178 b 390 288 497 178 431 218 l 606 288 l 606 425 l 347 425 b 343 488 344 444 343 465 b 346 543 343 507 344 525 l 606 543 l 606 681 l 386 681 b 588 797 426 754 493 797 b 794 715 718 797 782 729 l 929 839 b 564 999 835 946 732 999 b 101 681 335 999 165 882 l 0 681 l 0 543 l 75 543 b 74 488 75 525 74 507 b 76 425 74 467 75 446 l 0 425 l 0 288 l 104 288 b 564 -22 169 92 338 -22 b 929 136 732 -22 835 31 l 794 261 b 588 178 782 247 718 178 z "},"£":{"ha":801,"x_min":0,"x_max":0,"o":"m 524 185 l 358 185 b 417 361 392 242 417 303 b 411 422 417 382 414 403 l 606 422 l 606 560 l 365 560 b 336 669 350 599 336 635 b 453 761 336 740 389 761 b 624 656 528 761 582 700 l 774 814 b 413 986 676 926 551 986 b 82 682 228 986 82 869 b 99 560 82 638 89 596 l 0 560 l 0 422 l 147 422 b 165 349 157 394 165 369 b 46 154 165 254 93 186 l 46 0 l 757 0 l 757 296 l 524 296 z "},"¥":{"ha":929,"x_min":0,"x_max":0,"o":"m 569 971 l 569 793 l 646 793 l 569 653 b 518 533 554 619 524 561 l 513 533 b 469 646 507 557 478 619 l 389 793 l 461 793 l 461 971 l -14 971 l -14 793 l 54 793 l 218 519 l 93 519 l 93 424 l 276 424 l 324 344 l 324 342 l 93 342 l 93 246 l 324 246 l 324 181 l 244 181 l 244 0 l 689 0 l 689 181 l 611 181 l 611 246 l 854 246 l 854 342 l 611 342 l 658 424 l 854 424 l 854 519 l 713 519 l 868 793 l 943 793 l 943 971 z "},"+":{"ha":760,"x_min":0,"x_max":0,"o":"m 725 604 l 471 604 l 471 860 l 290 860 l 290 604 l 35 604 l 35 424 l 290 424 l 290 169 l 471 169 l 471 424 l 725 424 z "},"−":{"ha":1157,"x_min":0,"x_max":0,"o":"m 294 239 l 807 239 l 807 424 l 294 424 z "},"=":{"ha":642,"x_min":0,"x_max":0,"o":"m 35 546 l 607 546 l 607 731 l 35 731 z m 35 239 l 607 239 l 607 424 l 35 424 z "},">":{"ha":763,"x_min":0,"x_max":0,"o":"m 714 646 l 117 892 l 49 722 l 474 558 l 49 396 l 117 226 l 714 472 z "},"<":{"ha":763,"x_min":0,"x_max":0,"o":"m 49 471 l 646 225 l 714 394 l 289 558 l 714 721 l 646 890 l 49 644 z "},"^":{"ha":829,"x_min":0,"x_max":0,"o":"m 315 972 l 14 421 l 261 421 l 417 732 l 568 421 l 815 421 l 517 972 z "},"%":{"ha":1293,"x_min":0,"x_max":0,"o":"m 307 425 b 588 708 486 425 588 546 b 301 996 588 883 482 996 b 21 713 158 996 21 882 b 307 425 21 536 140 425 z m 419 0 l 1021 971 l 863 971 l 263 0 z m 307 553 b 228 713 271 553 228 613 b 303 865 228 810 268 867 b 379 708 344 865 379 801 b 307 553 379 613 349 553 z m 992 0 b 1272 283 1171 0 1272 121 b 986 571 1272 458 1167 571 b 706 288 843 571 706 457 b 992 0 706 111 825 0 z m 992 128 b 913 288 956 128 913 188 b 988 440 913 385 953 442 b 1064 283 1029 440 1064 376 b 992 128 1064 188 1033 128 z "},"◊":{"ha":778,"x_min":0,"x_max":0,"o":"m 468 971 l 310 971 l 14 486 l 310 0 l 468 0 l 764 486 z m 389 92 l 149 486 l 389 879 l 629 486 z "},"@":{"ha":1082,"x_min":0,"x_max":0,"o":"m 540 626 b 260 322 357 626 260 450 b 511 39 260 151 388 39 b 694 106 568 39 622 53 b 819 60 715 86 744 69 b 1075 382 1024 60 1075 263 b 526 876 1075 657 868 876 b 7 315 165 876 7 547 b 553 -217 7 -4 268 -217 b 942 -94 800 -217 942 -94 l 875 1 b 553 -100 875 1 761 -100 b 124 315 311 -100 124 88 b 526 758 124 497 246 758 b 960 382 796 758 960 592 b 819 178 960 307 931 178 b 768 194 806 178 793 179 b 767 196 768 196 768 196 l 822 592 l 685 610 l 676 554 b 540 626 643 594 597 626 z m 628 211 b 511 178 585 186 549 178 b 413 322 463 178 413 235 b 540 488 413 392 457 488 b 654 392 601 488 638 426 z "},"&":{"ha":1071,"x_min":0,"x_max":0,"o":"m 14 285 b 382 -18 14 114 151 -18 b 711 89 513 -18 638 21 l 801 0 l 1008 0 l 1008 181 l 928 181 l 842 265 b 921 429 872 311 899 364 l 1057 429 l 1057 604 l 760 604 b 688 419 743 547 721 482 l 558 549 b 717 751 633 579 717 642 b 414 988 717 858 629 988 b 117 751 238 988 117 868 b 218 568 117 678 163 604 b 14 285 58 486 14 375 z m 493 747 b 426 656 493 696 435 651 b 343 756 397 668 343 697 b 413 832 343 792 371 832 b 493 747 472 832 493 788 z m 274 293 b 368 419 274 344 331 396 l 374 419 l 550 246 b 386 188 501 203 431 188 b 274 293 332 188 274 226 z "},"©":{"ha":1024,"x_min":0,"x_max":0,"o":"m 513 -19 b 1010 479 786 -19 1010 204 b 513 978 1010 754 786 978 b 14 479 238 978 14 754 b 513 -19 14 204 238 -19 z m 513 26 b 60 479 263 26 60 229 b 513 932 60 729 263 932 b 964 479 761 932 964 729 b 513 26 964 229 761 26 z m 743 504 l 743 731 l 625 731 l 608 683 b 482 740 590 703 551 740 b 236 483 354 740 236 661 b 511 215 236 304 364 215 b 757 318 619 215 710 267 l 669 419 b 547 363 636 383 601 361 b 444 481 483 364 444 415 b 533 610 444 546 474 610 b 596 504 579 610 594 553 z "},"®":{"ha":696,"x_min":0,"x_max":0,"o":"m 349 307 b 682 643 532 307 682 458 b 349 978 682 828 532 978 b 14 643 164 978 14 828 b 349 307 14 458 164 307 z m 349 349 b 53 643 186 349 53 481 b 349 938 53 806 186 938 b 643 643 510 938 643 806 b 349 349 643 481 510 349 z m 190 756 l 219 756 l 219 531 l 190 531 l 190 463 l 357 463 l 357 531 l 326 531 l 326 611 b 378 553 372 611 378 599 b 478 457 378 492 410 457 b 553 539 535 457 553 496 l 553 567 l 518 567 l 518 550 b 506 533 518 540 514 533 b 494 568 497 533 494 547 b 426 642 494 606 463 636 b 501 717 469 649 501 676 b 358 822 501 775 478 822 l 190 822 z m 351 756 b 399 710 382 756 399 740 b 349 668 399 683 379 668 l 326 668 l 326 756 z "},"™":{"ha":807,"x_min":0,"x_max":0,"o":"m 14 971 l 14 850 l 82 850 l 82 910 l 122 910 l 122 707 l 85 707 l 85 644 l 258 644 l 258 707 l 219 707 l 219 910 l 258 910 l 258 850 l 328 850 l 328 971 z m 672 889 l 672 706 l 646 706 l 646 644 l 793 644 l 793 706 l 768 706 l 768 911 l 793 911 l 793 971 l 615 971 l 571 796 l 524 971 l 347 971 l 347 911 l 372 911 l 372 704 l 346 704 l 346 644 l 472 644 l 472 704 l 446 704 l 446 889 l 449 889 b 458 831 450 865 456 839 l 510 644 l 608 644 l 657 826 b 671 889 660 836 667 868 z "},"°":{"ha":353,"x_min":0,"x_max":0,"o":"m 176 768 b 325 915 257 768 325 835 b 176 1064 325 997 257 1064 b 28 915 94 1064 28 997 b 176 768 28 835 94 768 z m 176 838 b 97 915 132 838 97 874 b 176 994 97 958 132 994 b 254 915 218 994 254 958 b 176 838 254 874 218 838 z "},"|":{"ha":463,"x_min":0,"x_max":0,"o":"m 139 974 l 139 -283 l 324 -283 l 324 974 z "},"¦":{"ha":463,"x_min":0,"x_max":0,"o":"m 139 974 l 139 482 l 324 482 l 324 974 z m 139 276 l 139 -283 l 324 -283 l 324 276 z "},"̈":{"ha":0,"x_min":0,"x_max":0,"o":"m -443 743 b -343 844 -389 743 -343 789 b -443 943 -343 897 -389 943 b -543 844 -499 943 -543 897 b -443 743 -543 789 -499 743 z m -124 743 b -25 844 -69 743 -25 789 b -124 943 -25 897 -69 943 b -225 844 -179 943 -225 897 b -124 743 -225 789 -179 743 z "},"̇":{"ha":0,"x_min":0,"x_max":0,"o":"m -168 743 b -69 844 -114 743 -69 789 b -168 943 -69 897 -114 943 b -269 844 -224 943 -269 897 b -168 743 -269 789 -224 743 z "},"̀":{"ha":0,"x_min":0,"x_max":0,"o":"m -489 971 l -225 811 l -69 839 l -278 999 z "},"́":{"ha":0,"x_min":0,"x_max":0,"o":"m -69 971 l -281 999 l -489 839 l -333 811 z "},"̋":{"ha":0,"x_min":0,"x_max":0,"o":"m -331 985 l -514 1013 l -667 839 l -567 811 z m -69 957 l -253 985 l -433 839 l -333 811 z "},"̂":{"ha":0,"x_min":0,"x_max":0,"o":"m -69 811 l -257 971 l -386 971 l -574 811 l -412 763 l -321 885 l -231 763 z "},"̌":{"ha":0,"x_min":0,"x_max":0,"o":"m -231 971 l -321 849 l -412 971 l -574 922 l -386 763 l -257 763 l -69 922 z "},"̆":{"ha":0,"x_min":0,"x_max":0,"o":"m -69 919 l -211 951 b -267 856 -211 892 -237 856 b -324 951 -297 856 -324 892 l -465 919 b -267 747 -460 814 -374 747 b -69 919 -161 747 -75 814 z "},"̊":{"ha":0,"x_min":0,"x_max":0,"o":"m -211 736 b -69 878 -133 736 -69 800 b -211 1019 -69 956 -133 1019 b -353 878 -289 1019 -353 956 b -211 736 -353 800 -289 736 z m -211 826 b -262 878 -239 826 -262 850 b -211 929 -262 906 -239 929 b -160 878 -183 929 -160 906 b -211 826 -160 850 -183 826 z "},"̃":{"ha":0,"x_min":0,"x_max":0,"o":"m -217 769 b -69 906 -142 772 -93 826 l -167 965 b -232 890 -171 954 -203 893 b -406 982 -286 885 -311 986 b -551 846 -479 979 -528 925 l -453 786 b -389 861 -451 797 -418 858 b -217 769 -336 867 -308 767 z "},"̄":{"ha":0,"x_min":0,"x_max":0,"o":"m -694 942 l -694 826 l -69 826 l -69 942 z "},"̒":{"ha":0,"x_min":0,"x_max":0,"o":"m -153 1065 b -283 818 -242 1004 -286 911 l -137 783 b -69 1018 -144 893 -121 954 z "},"̦":{"ha":0,"x_min":0,"x_max":0,"o":"m -214 -461 b -69 -157 -122 -381 -65 -272 l -232 -114 b -317 -403 -222 -249 -253 -324 z "},"̧":{"ha":0,"x_min":0,"x_max":0,"o":"m -350 -143 l -260 -160 b -204 -122 -257 -144 -232 -122 b -151 -179 -168 -122 -151 -144 b -224 -236 -151 -215 -171 -233 b -318 -207 -257 -237 -299 -228 l -386 -272 b -218 -335 -357 -304 -297 -335 b -28 -172 -128 -335 -28 -281 b -178 -31 -28 -78 -100 -25 b -269 -78 -233 -35 -262 -65 l -264 19 l -336 19 z "},"̨":{"ha":0,"x_min":0,"x_max":0,"o":"m -349 21 b -454 -160 -369 3 -454 -50 b -69 -249 -454 -297 -268 -358 l -142 -147 b -339 -94 -289 -204 -339 -139 b -271 7 -339 -53 -299 -18 z "},"´":{"ha":833,"x_min":0,"x_max":0,"o":"m 489 971 l 278 999 l 69 839 l 225 811 z "},"˘":{"ha":833,"x_min":0,"x_max":0,"o":"m 465 919 l 324 951 b 268 856 324 892 297 856 b 211 951 238 856 211 892 l 69 919 b 268 747 75 814 161 747 b 465 919 374 747 460 814 z "},"ˇ":{"ha":833,"x_min":0,"x_max":0,"o":"m 413 971 l 322 849 l 231 971 l 69 922 l 257 763 l 386 763 l 574 922 z "},"¸":{"ha":833,"x_min":0,"x_max":0,"o":"m 133 -143 l 224 -160 b 279 -122 226 -144 251 -122 b 332 -179 315 -122 332 -144 b 260 -236 332 -215 313 -233 b 165 -207 226 -237 185 -228 l 97 -272 b 265 -335 126 -304 186 -335 b 456 -172 356 -335 456 -281 b 306 -31 456 -78 383 -25 b 214 -78 250 -35 221 -65 l 219 19 l 147 19 z "},"ˆ":{"ha":833,"x_min":0,"x_max":0,"o":"m 574 811 l 386 971 l 257 971 l 69 811 l 231 763 l 322 885 l 413 763 z "},"¨":{"ha":833,"x_min":0,"x_max":0,"o":"m 125 743 b 225 844 179 743 225 789 b 125 943 225 897 179 943 b 25 844 69 943 25 897 b 125 743 25 789 69 743 z m 444 743 b 543 844 499 743 543 789 b 444 943 543 897 499 943 b 343 844 389 943 343 897 b 444 743 343 789 389 743 z "},"˙":{"ha":833,"x_min":0,"x_max":0,"o":"m 171 743 b 269 844 225 743 269 789 b 171 943 269 897 225 943 b 69 844 115 943 69 897 b 171 743 69 789 115 743 z "},"`":{"ha":833,"x_min":0,"x_max":0,"o":"m 69 971 l 333 811 l 489 839 l 281 999 z "},"˝":{"ha":833,"x_min":0,"x_max":0,"o":"m 406 985 l 222 1013 l 69 839 l 169 811 z m 667 957 l 483 985 l 303 839 l 403 811 z "},"¯":{"ha":833,"x_min":0,"x_max":0,"o":"m 69 942 l 69 826 l 694 826 l 694 942 z "},"˛":{"ha":833,"x_min":0,"x_max":0,"o":"m 175 21 b 69 -160 154 3 69 -50 b 454 -249 69 -297 256 -358 l 382 -147 b 185 -94 235 -204 185 -139 b 253 7 185 -53 225 -18 z "},"˚":{"ha":422,"x_min":0,"x_max":0,"o":"m 211 736 b 353 878 289 736 353 800 b 211 1019 353 956 289 1019 b 69 878 133 1019 69 956 b 211 736 69 800 133 736 z m 211 826 b 160 878 183 826 160 850 b 211 929 160 906 183 929 b 263 878 239 929 263 906 b 211 826 263 850 239 826 z "},"˜":{"ha":833,"x_min":0,"x_max":0,"o":"m 404 769 b 551 906 479 772 528 826 l 454 965 b 389 890 450 954 418 893 b 215 982 335 885 310 986 b 69 846 142 979 93 925 l 168 786 b 232 861 169 797 203 858 b 404 769 285 867 313 767 z "}}}
